<?xml version="1.0" standalone="no"?>
<!DOCTYPE svg PUBLIC "-//W3C//DTD SVG 20010904//EN"
 "http://www.w3.org/TR/2001/REC-SVG-20010904/DTD/svg10.dtd">
<svg version="1.0" xmlns="http://www.w3.org/2000/svg"
 width="2076.000000pt" height="2076.000000pt" viewBox="0 0 2076.000000 2076.000000"
 preserveAspectRatio="xMidYMid meet">

<g transform="translate(0.000000,2076.000000) scale(0.100000,-0.100000)"
fill="##29b24a" stroke="none">
<path d="M9830 20739 c-1685 -94 -3269 -572 -4715 -1422 -1379 -811 -2594
-1981 -3463 -3334 -1240 -1932 -1798 -4184 -1607 -6488 227 -2736 1557 -5293
3675 -7067 2280 -1910 5242 -2747 8185 -2312 3061 452 5772 2270 7382 4949
801 1331 1282 2810 1427 4380 54 576 54 1265 1 1865 -214 2419 -1283 4687
-3025 6421 -1207 1200 -2683 2084 -4300 2575 -800 243 -1612 385 -2484 434
-205 12 -863 11 -1076 -1z m1035 -3239 c793 -62 1491 -239 2175 -555 461 -212
940 -518 1330 -850 161 -138 546 -525 672 -677 778 -939 1227 -2033 1318
-3207 13 -174 13 -696 0 -893 -56 -812 -231 -1547 -575 -2403 -90 -225 -260
-614 -273 -626 -4 -4 -127 -12 -274 -18 -305 -13 -502 -31 -738 -67 -1123
-172 -1957 -641 -2524 -1418 -389 -533 -644 -1220 -765 -2061 -16 -110 -58
-489 -92 -842 l-63 -643 -673 0 -672 0 -6 43 c-3 23 -21 204 -40 402 -89 916
-107 1061 -166 1365 -109 560 -297 1074 -544 1484 -149 248 -299 440 -500 641
-460 461 -1017 762 -1740 940 -385 95 -760 142 -1277 161 l-186 6 -101 227
c-419 945 -644 1738 -725 2556 -41 408 -45 944 -11 1270 124 1180 584 2241
1369 3155 120 140 443 462 585 583 1024 875 2267 1360 3678 1437 185 10 631 5
818 -10z"/>
</g>
</svg>
