<?xml version="1.0" standalone="no"?>
<!DOCTYPE svg PUBLIC "-//W3C//DTD SVG 20010904//EN"
 "http://www.w3.org/TR/2001/REC-SVG-20010904/DTD/svg10.dtd">
<svg version="1.0" xmlns="http://www.w3.org/2000/svg"
 width="512.000000pt" height="512.000000pt" viewBox="0 0 512.000000 512.000000"
 preserveAspectRatio="xMidYMid meet">

<g transform="translate(0.000000,512.000000) scale(0.100000,-0.100000)"
fill="#000000" stroke="none">
<path d="M1316 4675 c-134 -37 -269 -140 -328 -250 -58 -108 -959 -2139 -973
-2192 -22 -83 -22 -1387 -1 -1478 34 -143 139 -256 284 -306 53 -18 121 -19
2262 -19 2141 0 2209 1 2262 19 145 50 250 163 284 306 21 91 21 1395 -1 1478
-14 53 -915 2084 -973 2192 -60 112 -195 214 -332 250 -78 21 -2408 21 -2484
0z m2484 -224 c78 -41 116 -78 153 -148 36 -71 777 -1725 777 -1736 0 -4 -976
-7 -2170 -7 -1194 0 -2170 3 -2170 7 0 11 741 1665 777 1736 45 85 120 146
208 168 17 4 559 6 1205 6 l1175 -2 45 -24z m941 -2112 c75 -16 142 -84 158
-161 8 -38 11 -250 9 -714 -3 -581 -5 -663 -19 -694 -21 -46 -65 -89 -114
-111 -38 -18 -126 -19 -2215 -19 -2089 0 -2177 1 -2215 19 -49 22 -93 65 -114
111 -14 31 -16 113 -19 694 -2 464 1 676 9 714 15 72 83 145 150 160 66 15
4302 15 4370 1z"/>
<path d="M949 1898 c-109 -39 -188 -115 -227 -222 -11 -28 -34 -125 -52 -216
-30 -150 -32 -171 -23 -237 34 -235 247 -394 483 -362 191 26 347 196 358 389
3 60 -2 109 -28 231 -42 200 -60 247 -121 314 -102 111 -252 151 -390 103z
m206 -427 c130 -59 164 -225 69 -331 -97 -108 -273 -87 -343 40 -60 108 -8
252 109 299 40 16 122 12 165 -8z"/>
<path d="M2239 1902 c-65 -22 -135 -68 -174 -114 -48 -57 -74 -130 -112 -314
-34 -165 -36 -183 -26 -251 34 -235 247 -394 483 -362 203 28 360 209 360 416
0 83 -63 373 -95 439 -32 65 -109 138 -180 170 -75 35 -180 41 -256 16z m189
-428 c145 -60 176 -248 59 -351 -137 -120 -351 -25 -350 156 0 90 52 167 133
200 38 15 116 13 158 -5z"/>
<path d="M3357 1696 c-66 -18 -104 -52 -137 -121 -25 -52 -25 -109 1 -165 27
-60 45 -79 104 -106 60 -29 116 -30 170 -5 70 32 108 79 124 151 34 153 -108
287 -262 246z"/>
<path d="M4211 1698 c-64 -14 -135 -88 -149 -154 -23 -106 24 -199 123 -245
54 -25 110 -24 170 5 59 27 77 46 104 106 73 160 -72 327 -248 288z"/>
</g>
</svg>
