<?xml version="1.0" standalone="no"?>
<!DOCTYPE svg PUBLIC "-//W3C//DTD SVG 20010904//EN"
 "http://www.w3.org/TR/2001/REC-SVG-20010904/DTD/svg10.dtd">
<svg version="1.0" xmlns="http://www.w3.org/2000/svg"
 width="512.000000pt" height="512.000000pt" viewBox="0 0 512.000000 512.000000"
 preserveAspectRatio="xMidYMid meet">

<g transform="translate(0.000000,512.000000) scale(0.100000,-0.100000)"
fill="#000000" stroke="none">
<path d="M1406 4154 c-85 -21 -173 -71 -237 -136 -50 -50 -72 -88 -173 -294
-64 -130 -116 -240 -116 -245 0 -15 -10 -11 -44 18 -63 53 -99 63 -247 63
-131 0 -138 -1 -175 -26 -71 -49 -92 -95 -93 -207 -2 -157 71 -237 214 -237
36 0 65 -2 65 -5 0 -3 -12 -18 -26 -33 -14 -15 -38 -52 -53 -82 l-26 -55 -3
-300 c-4 -329 2 -379 49 -485 29 -63 91 -147 136 -183 22 -18 23 -24 23 -173
0 -175 12 -217 78 -275 61 -54 93 -62 253 -67 176 -5 237 8 300 65 62 56 81
103 87 211 l5 92 501 0 501 0 47 -93 c82 -161 204 -294 368 -403 67 -44 718
-354 744 -354 9 0 122 50 253 111 469 219 525 251 662 383 128 125 209 251
259 406 39 119 42 177 42 833 l0 638 -22 22 c-20 20 -40 24 -173 35 -82 7
-195 21 -250 33 -222 45 -467 146 -653 268 -56 37 -103 61 -120 61 -16 0 -58
-21 -102 -50 l-75 -50 -79 161 c-90 182 -145 250 -252 306 -118 63 -116 63
-899 62 -577 -1 -721 -3 -769 -15z m1571 -178 c92 -42 133 -93 214 -263 38
-80 69 -147 69 -148 0 -8 -125 -60 -230 -95 -149 -50 -289 -78 -472 -93 -185
-16 -188 -18 -188 -129 l0 -78 -731 0 c-581 0 -730 3 -726 13 2 6 76 160 163
341 160 331 195 387 264 431 87 55 76 54 855 52 l720 -2 62 -29z m682 -458
c247 -156 586 -272 856 -293 44 -3 90 -8 103 -11 l22 -4 0 -581 c0 -630 -2
-664 -57 -794 -62 -147 -187 -293 -336 -389 -45 -30 -213 -116 -373 -190
l-290 -136 -295 138 c-162 76 -319 154 -349 173 -151 97 -267 223 -335 364
-76 157 -76 160 -73 830 l3 590 95 7 c283 22 616 133 870 291 41 26 79 47 84
47 5 0 38 -19 75 -42z m-2985 -118 c25 -5 54 -24 79 -49 38 -38 40 -41 27 -70
l-12 -31 -132 0 c-89 0 -136 4 -144 12 -13 13 -16 106 -4 125 12 19 126 27
186 13z m1694 -637 l2 -243 -336 0 -336 0 -29 -29 c-31 -32 -35 -50 -17 -84
24 -46 26 -46 381 -47 l337 0 0 -45 0 -45 -336 0 c-195 0 -343 -4 -353 -10
-10 -5 -24 -23 -31 -40 -16 -38 0 -82 36 -99 17 -7 131 -11 354 -11 l330 0 0
-44 c0 -24 3 -58 6 -75 l7 -31 -691 0 c-659 0 -693 1 -754 20 -119 37 -200
109 -255 226 l-28 59 -3 295 c-2 186 0 308 7 330 6 20 24 48 40 64 59 57 38
55 886 53 l780 -2 3 -242z m-1433 -948 c37 -9 112 -15 193 -15 l132 0 0 -65
c0 -129 -32 -149 -227 -143 -112 3 -123 5 -147 27 -24 23 -26 30 -26 118 0 51
3 93 8 93 4 -1 34 -7 67 -15z"/>
<path d="M3495 3384 c-217 -141 -438 -216 -694 -233 -107 -7 -116 -9 -138 -35
l-23 -27 0 -497 c0 -558 2 -580 69 -717 69 -143 166 -251 311 -344 79 -50 535
-261 565 -261 28 0 443 191 545 250 155 92 295 250 351 399 45 121 49 174 49
686 l0 484 -24 27 c-22 26 -29 28 -137 35 -251 15 -442 78 -688 228 -46 28
-91 51 -100 51 -9 0 -47 -21 -86 -46z m144 -168 c101 -61 215 -114 326 -151
105 -35 303 -75 372 -75 l34 0 -3 -462 -3 -463 -26 -66 c-14 -37 -38 -88 -54
-115 -37 -63 -135 -161 -208 -208 -61 -39 -472 -236 -493 -236 -21 0 -450 206
-500 241 -118 80 -203 184 -252 307 l-27 67 -3 466 -3 465 101 12 c224 26 490
120 640 226 19 14 37 25 39 26 2 0 29 -15 60 -34z"/>
<path d="M3669 2460 c-200 -192 -366 -350 -370 -350 -4 0 -35 75 -68 168 -37
99 -70 174 -82 185 -32 26 -83 22 -108 -9 -12 -15 -21 -37 -21 -48 0 -20 128
-380 167 -469 19 -43 38 -57 81 -57 26 0 79 47 364 321 477 459 518 501 518
531 0 43 -36 78 -80 78 -37 0 -52 -13 -401 -350z"/>
<path d="M889 2841 c-62 -39 -79 -83 -79 -207 0 -114 19 -160 82 -201 l42 -28
277 0 c277 0 279 0 301 23 49 49 16 187 -65 270 -56 58 -75 67 -261 124 -190
57 -233 60 -297 19z m260 -176 c80 -24 156 -52 170 -62 54 -41 43 -44 -156
-41 l-188 3 -3 73 c-3 64 -1 72 15 72 10 0 83 -20 162 -45z"/>
</g>
</svg>
