<?xml version="1.0" standalone="no"?>
<!DOCTYPE svg PUBLIC "-//W3C//DTD SVG 20010904//EN"
 "http://www.w3.org/TR/2001/REC-SVG-20010904/DTD/svg10.dtd">
<svg version="1.0" xmlns="http://www.w3.org/2000/svg"
 width="512.000000pt" height="512.000000pt" viewBox="0 0 512.000000 512.000000"
 preserveAspectRatio="xMidYMid meet">

<g transform="translate(0.000000,512.000000) scale(0.100000,-0.100000)"
fill="#000000" stroke="none">
<path d="M2185 4645 c-372 -17 -578 -30 -765 -49 -80 -8 -280 -20 -445 -26
-165 -7 -314 -15 -331 -20 -17 -4 -58 -28 -91 -53 -48 -37 -65 -57 -81 -99
-40 -102 -43 -130 -41 -448 0 -170 -2 -313 -6 -319 -3 -6 -39 -27 -78 -46 -40
-19 -94 -51 -122 -72 -45 -35 -53 -46 -78 -123 l-29 -85 16 -110 c9 -60 21
-168 27 -238 5 -71 21 -182 34 -247 14 -65 32 -191 40 -281 8 -90 26 -222 40
-294 14 -71 34 -215 45 -320 10 -104 28 -230 39 -280 11 -49 27 -169 36 -265
24 -257 71 -456 127 -536 86 -122 230 -231 340 -257 77 -18 3319 -18 3396 0
75 18 174 78 245 150 95 94 122 140 153 250 43 156 52 207 69 393 9 96 25 216
36 265 11 50 29 178 40 285 11 107 31 251 44 320 14 69 32 199 40 289 8 90 26
216 40 282 13 65 29 178 35 251 6 73 17 177 26 231 13 88 13 105 0 157 -33
128 -66 164 -213 235 -39 19 -75 40 -78 46 -4 6 -6 149 -6 319 2 317 0 338
-41 447 -16 43 -31 61 -80 99 -34 26 -75 50 -92 55 -17 5 -179 15 -361 24
-181 8 -337 17 -345 20 -46 13 -408 36 -695 45 -181 5 -388 12 -460 14 -71 2
-265 -2 -430 -9z m612 -105 c146 -12 187 -20 174 -33 -6 -6 -70 -12 -143 -14
-158 -5 -188 -13 -223 -59 -14 -18 -35 -34 -45 -34 -10 0 -31 16 -45 34 -35
46 -65 54 -223 59 -139 4 -189 19 -110 32 130 23 433 30 615 15z m-984 -76
c20 -4 37 -10 37 -14 0 -27 -272 -41 -735 -38 -390 3 -409 4 -385 20 18 12 60
20 145 26 138 11 882 15 938 6z m2510 -12 c31 -4 65 -16 74 -25 16 -16 -8 -17
-412 -17 -487 0 -715 13 -715 40 0 5 10 11 23 13 37 9 967 -1 1030 -11z
m-3633 -57 c0 -3 -13 -29 -30 -58 l-30 -54 0 -284 0 -285 25 -34 c14 -19 25
-38 25 -43 0 -31 -88 -50 -107 -24 -11 14 -2 752 10 763 4 4 26 11 50 15 23 3
45 7 50 8 4 0 7 -1 7 -4z m3842 -24 c15 -14 17 -55 19 -381 2 -201 0 -371 -4
-377 -17 -27 -107 -6 -107 24 0 5 11 24 25 43 l25 34 0 283 c0 263 -1 287 -20
323 -11 21 -24 41 -30 45 -5 3 -10 12 -10 20 0 18 80 8 102 -14z m-2152 -41
c27 -27 26 -81 0 -105 -18 -16 -49 -19 -244 -27 -213 -8 -227 -7 -271 12 -40
17 -84 22 -283 30 -130 6 -245 7 -256 4 -12 -4 -35 -23 -52 -43 l-32 -36 -239
-3 c-212 -3 -242 -1 -257 13 -37 37 0 71 86 79 300 25 446 38 518 46 47 5 254
14 460 20 206 7 407 15 445 20 39 4 78 8 88 9 9 0 26 -8 37 -19z m520 5 c19
-2 204 -9 410 -15 206 -6 413 -15 460 -20 72 -8 219 -21 518 -46 86 -8 123
-42 86 -79 -15 -15 -45 -16 -257 -13 l-239 3 -32 36 c-17 20 -40 39 -52 43
-11 3 -126 2 -256 -4 -199 -8 -243 -13 -283 -30 -44 -19 -58 -20 -271 -12
-195 8 -226 11 -244 27 -27 24 -26 79 0 105 21 21 26 21 160 5z m-1093 -243
c33 -19 40 -59 15 -84 -19 -19 -36 -21 -209 -26 -155 -4 -198 -2 -245 12 -82
24 -88 63 -14 97 37 18 61 19 236 17 135 -2 202 -7 217 -16z m1953 2 c51 -21
68 -48 45 -74 -31 -34 -105 -43 -302 -38 -158 5 -186 8 -203 23 -38 34 -17 81
40 95 19 4 113 8 207 9 138 1 181 -2 213 -15z m-1376 -30 c9 -8 16 -19 16 -24
0 -5 -7 -16 -16 -24 -13 -13 -44 -16 -178 -16 -173 0 -226 9 -226 40 0 30 46
38 222 39 139 1 169 -2 182 -15z m725 5 c41 -15 41 -43 0 -58 -18 -6 -102 -11
-195 -11 -134 0 -165 3 -178 16 -9 8 -16 19 -16 24 0 5 7 16 16 24 13 13 44
16 178 16 93 0 177 -5 195 -11z m-1964 -28 c10 -17 -14 -22 -101 -22 -89 0
-122 9 -88 22 28 11 182 11 189 0z m3019 0 c34 -13 1 -22 -88 -22 -87 0 -111
5 -101 22 7 11 161 11 189 0z m-1777 -177 c19 -29 20 -68 3 -89 -11 -13 -114
-15 -821 -15 -721 0 -809 2 -823 16 -20 20 -20 27 3 55 l19 24 514 0 c373 0
527 3 563 12 48 12 471 32 508 24 10 -2 25 -14 34 -27z m888 3 c36 -9 191 -12
563 -12 l514 0 19 -24 c23 -28 24 -35 3 -55 -14 -14 -99 -16 -827 -14 l-811 3
-13 24 c-14 30 3 81 33 96 27 13 452 -1 519 -18z m-635 -196 c34 -28 34 -30
17 -48 -14 -14 -33 -18 -97 -18 -64 0 -83 4 -97 18 -17 18 -17 20 17 48 27 23
44 29 80 29 36 0 53 -6 80 -29z m1813 -220 c26 -21 20 -48 -18 -77 -19 -14
-52 -49 -73 -77 -35 -49 -37 -55 -37 -128 1 -73 2 -78 35 -116 19 -22 44 -52
55 -67 25 -33 154 -81 194 -71 26 6 142 54 195 81 16 8 31 12 34 10 4 -5 -1
-39 -24 -154 -2 -12 -13 -31 -24 -42 -18 -18 -34 -20 -129 -20 -60 0 -121 -4
-134 -9 -13 -5 -43 -33 -65 -61 l-42 -53 0 -439 0 -439 26 -45 c28 -47 67 -74
108 -74 50 0 75 -17 82 -56 9 -49 -12 -242 -41 -379 -13 -60 -28 -158 -34
-217 -6 -59 -18 -122 -26 -140 -78 -163 -150 -224 -354 -296 -83 -29 -92 -15
-183 297 -17 60 -112 137 -184 150 -64 12 -2444 12 -2508 0 -72 -13 -167 -90
-184 -150 -93 -315 -96 -320 -180 -299 -26 6 -60 20 -77 30 -16 9 -47 23 -67
29 -45 15 -134 98 -170 160 -50 85 -58 111 -69 219 -6 59 -21 157 -34 217 -29
137 -50 330 -41 379 8 40 32 56 85 56 39 0 77 33 106 91 l25 48 -1 413 c-1
227 -4 423 -7 436 -11 37 -75 110 -106 122 -16 5 -76 10 -132 10 -90 0 -107 3
-124 20 -11 11 -22 30 -24 42 -23 115 -28 149 -24 154 3 2 50 -16 104 -40 54
-25 112 -48 127 -52 40 -9 172 40 195 74 9 13 30 39 46 55 33 36 46 74 46 135
0 63 -22 104 -89 173 -34 34 -61 64 -61 68 0 18 28 40 55 44 17 2 863 4 1881
3 1553 -1 1854 -3 1867 -15z m-4055 -10 c25 -16 9 -55 -31 -76 -28 -15 -40
-30 -49 -58 -6 -20 -17 -42 -25 -49 -21 -17 -45 12 -45 55 0 75 100 160 150
128z m4398 -12 c66 -40 94 -117 61 -164 -18 -24 -32 -14 -52 38 -11 30 -26 48
-53 62 -54 29 -56 84 -3 85 7 0 29 -9 47 -21z m-4206 -134 c68 -35 93 -104 62
-175 -25 -58 -42 -71 -97 -78 -94 -10 -156 46 -154 140 1 62 10 78 60 104 52
27 89 30 129 9z m4063 -4 c54 -23 67 -44 67 -106 0 -96 -46 -145 -137 -145
-56 0 -85 20 -111 75 -21 44 -23 54 -12 90 14 48 35 73 75 91 41 18 66 17 118
-5z m-4130 -642 c37 -17 43 -43 42 -179 -2 -161 -15 -190 -86 -190 -43 0 -86
30 -104 74 -7 17 -21 81 -31 143 -17 108 -17 113 0 132 13 14 34 21 70 24 28
2 59 4 68 5 9 1 28 -3 41 -9z m4252 -20 c19 -19 19 -20 1 -131 -20 -126 -37
-169 -74 -198 -26 -21 -82 -26 -112 -10 -29 16 -40 66 -40 192 0 125 7 154 43
168 37 14 159 0 182 -21z m-4224 -490 c20 -20 21 -29 17 -168 -4 -169 -12
-194 -61 -189 -49 5 -73 57 -93 211 -16 122 -16 128 1 147 26 29 107 28 136
-1z m4154 1 c17 -19 17 -25 1 -147 -21 -153 -44 -206 -92 -211 -53 -5 -59 13
-62 188 -4 155 -3 158 19 174 34 23 111 21 134 -4z m-3195 -1267 c20 -25 21
-37 18 -144 -4 -161 -2 -159 -167 -159 -163 0 -176 7 -167 89 12 99 28 166 45
185 35 39 83 55 168 56 77 0 83 -1 103 -27z m480 0 c20 -26 21 -37 18 -151 -4
-157 2 -152 -169 -152 -176 0 -174 -2 -174 165 0 167 -3 165 175 165 128 0
129 0 150 -27z m477 5 c22 -20 23 -29 23 -145 0 -166 3 -163 -168 -163 -170 0
-165 -4 -173 141 -7 116 -1 154 28 177 11 8 57 12 142 12 114 0 127 -2 148
-22z m473 12 c30 -16 39 -66 32 -183 -9 -140 -5 -137 -174 -137 -171 0 -168
-3 -168 162 0 111 2 124 22 145 20 22 29 23 145 23 69 0 133 -4 143 -10z m491
-9 c23 -18 24 -25 24 -146 0 -167 2 -165 -174 -165 -171 0 -165 -5 -169 152
-3 114 -2 125 18 151 21 27 22 27 150 27 111 0 131 -3 151 -19z m397 0 c66
-34 79 -64 98 -222 9 -82 -4 -89 -167 -89 -165 0 -163 -2 -167 159 -3 107 -2
119 18 144 20 25 26 27 101 27 59 0 90 -5 117 -19z"/>
<path d="M967 3148 c-62 -22 -70 -28 -112 -98 l-35 -58 0 -793 1 -794 32 -60
c27 -51 41 -65 92 -92 l60 -32 1555 0 1555 0 60 32 c51 27 65 41 92 92 l32 60
1 795 0 795 -40 63 c-72 113 108 102 -1689 105 -1446 2 -1559 1 -1604 -15z
m3172 -125 l22 -18 0 -804 c0 -742 -1 -805 -17 -822 -17 -18 -63 -19 -1584
-19 -1524 0 -1567 1 -1584 19 -16 17 -17 78 -17 822 l0 804 22 18 c20 16 110
17 1579 17 1469 0 1559 -1 1579 -17z"/>
</g>
</svg>
