<?xml version="1.0" standalone="no"?>
<!DOCTYPE svg PUBLIC "-//W3C//DTD SVG 20010904//EN"
 "http://www.w3.org/TR/2001/REC-SVG-20010904/DTD/svg10.dtd">
<svg version="1.0" xmlns="http://www.w3.org/2000/svg"
 width="512.000000pt" height="512.000000pt" viewBox="0 0 512.000000 512.000000"
 preserveAspectRatio="xMidYMid meet">

<g transform="translate(0.000000,512.000000) scale(0.100000,-0.100000)"
fill="#000000" stroke="none">
<path d="M3235 4805 c-47 -46 -37 -63 111 -208 278 -269 531 -606 765 -1014
108 -190 248 -472 319 -643 28 -69 61 -133 72 -142 42 -37 111 -7 111 48 0 39
-83 236 -198 469 -264 536 -586 1004 -921 1341 -120 120 -186 174 -216 174
-10 0 -30 -11 -43 -25z"/>
<path d="M1470 4435 c-79 -18 -268 -108 -353 -169 -262 -187 -432 -459 -498
-798 -29 -146 -31 -397 -5 -568 l17 -115 -154 -155 c-174 -175 -208 -229 -228
-358 -22 -146 30 -359 151 -624 111 -242 147 -286 210 -253 53 27 50 52 -28
208 -137 276 -192 447 -192 597 0 117 21 157 159 295 66 65 122 117 124 115 1
-3 18 -54 36 -115 144 -481 504 -1137 840 -1530 61 -71 69 -63 -108 -101 -204
-43 -287 -27 -406 77 -31 27 -67 52 -81 55 -49 12 -96 -44 -79 -95 8 -28 125
-121 193 -155 78 -39 167 -59 233 -52 31 3 138 23 238 45 l182 40 91 -80 c508
-448 1115 -530 1614 -218 192 121 312 306 360 559 111 578 -111 1412 -574
2155 -82 132 -204 306 -228 326 -41 34 -114 -1 -114 -55 0 -12 41 -80 91 -151
345 -493 588 -1059 680 -1590 30 -171 37 -445 15 -591 -50 -342 -212 -542
-462 -574 -290 -37 -672 164 -1049 551 -165 170 -277 310 -420 524 -333 499
-553 1044 -631 1565 -24 160 -24 453 0 575 23 116 71 245 120 318 214 321 659
275 1145 -120 112 -91 125 -98 161 -83 16 6 34 25 41 41 15 38 0 60 -96 142
-180 151 -434 293 -615 342 -121 33 -285 42 -380 20z m-501 -564 c-49 -192
-50 -498 -5 -766 80 -462 265 -940 542 -1397 374 -616 873 -1086 1319 -1242
l70 -25 -116 0 c-67 -1 -152 6 -199 15 -526 99 -1032 594 -1461 1429 -186 362
-297 669 -355 985 -23 122 -26 470 -5 575 32 161 105 337 186 448 19 26 37 47
38 47 2 0 -4 -31 -14 -69z"/>
<path d="M3102 4424 c-16 -11 -22 -25 -22 -51 0 -33 9 -45 95 -125 532 -500
1049 -1484 1151 -2193 18 -123 32 -148 85 -148 39 0 69 32 69 73 0 45 -37 251
-66 363 -137 541 -456 1182 -830 1667 -49 63 -159 186 -245 273 -166 168 -184
178 -237 141z"/>
<path d="M1527 4159 c-144 -34 -247 -170 -294 -389 -25 -117 -25 -419 0 -575
115 -709 517 -1493 1027 -2006 185 -186 356 -317 518 -398 383 -191 627 -104
724 258 33 121 37 411 9 605 -95 656 -472 1424 -954 1944 -374 404 -773 622
-1030 561z m256 -167 c158 -51 362 -189 556 -377 578 -558 1022 -1487 1048
-2190 11 -298 -41 -484 -156 -562 -49 -33 -156 -32 -257 2 -513 172 -1131 923
-1437 1745 -209 561 -243 1125 -81 1338 66 86 159 99 327 44z"/>
<path d="M1925 3266 c-134 -62 -194 -204 -182 -434 24 -469 389 -1076 761
-1264 161 -81 317 -65 410 43 208 244 47 885 -337 1346 -221 265 -482 389
-652 309z m191 -131 c283 -84 648 -606 730 -1042 23 -126 17 -281 -15 -346
-71 -146 -247 -107 -465 102 -205 198 -376 498 -451 793 -59 233 -37 423 55
486 38 26 77 28 146 7z"/>
<path d="M2141 2671 c-28 -28 -44 -96 -36 -150 30 -214 214 -461 344 -461 17
0 42 10 58 24 25 21 28 32 31 99 5 90 -13 160 -69 267 -46 89 -116 172 -178
212 -55 34 -121 38 -150 9z"/>
<path d="M2956 4049 c-51 -40 -39 -66 92 -197 291 -291 551 -704 737 -1172 86
-215 125 -359 173 -629 13 -80 88 -106 128 -46 15 23 15 36 4 118 -66 482
-375 1151 -749 1617 -140 175 -300 330 -341 330 -9 0 -29 -9 -44 -21z"/>
<path d="M2651 3794 c-12 -15 -21 -34 -21 -43 0 -39 102 -151 138 -151 53 0
90 47 73 93 -5 12 -31 46 -58 75 -59 62 -98 70 -132 26z"/>
<path d="M4624 2608 c-47 -22 -50 -99 -8 -166 32 -50 99 -47 123 5 16 36 -10
125 -45 152 -30 23 -39 24 -70 9z"/>
<path d="M4695 2275 c-14 -13 -25 -29 -25 -35 0 -6 11 -66 24 -133 14 -67 28
-151 32 -187 8 -79 25 -116 58 -124 32 -8 71 10 84 39 11 24 4 106 -23 255
-26 142 -41 185 -70 198 -38 17 -53 15 -80 -13z"/>
<path d="M670 1260 c-29 -29 -25 -68 15 -127 38 -57 70 -72 114 -57 42 15 50
57 22 110 -49 92 -105 120 -151 74z"/>
</g>
</svg>
