<svg id="svg" fill="#ffffff" stroke="#ffffff" width="23" height="23" version="1.1" viewBox="144 144 512 512" xmlns="http://www.w3.org/2000/svg">
    <g id="IconSvg_bgCarrier" stroke-width="0"></g>
    <g id="IconSvg_tracerCarrier" stroke-linecap="round" stroke-linejoin="round" stroke="#CCCCCC" stroke-width="0">
      <path xmlns="http://www.w3.org/2000/svg" d="m462.98 232.06c27.836 0 54.531 11.059 74.215 30.742 19.684 19.684 30.742 46.379 30.742 74.219v125.95c0 27.836-11.059 54.531-30.742 74.215s-46.379 30.742-74.215 30.742h-125.95c-27.84 0-54.535-11.059-74.219-30.742-19.684-19.684-30.742-46.379-30.742-74.215v-125.95c0-27.84 11.059-54.535 30.742-74.219 19.684-19.684 46.379-30.742 74.219-30.742h125.95m0-20.992h-125.95c-33.406 0-65.441 13.27-89.062 36.891-23.621 23.621-36.891 55.656-36.891 89.062v125.95c0 33.402 13.27 65.438 36.891 89.059 23.621 23.621 55.656 36.891 89.062 36.891h125.95c33.402 0 65.438-13.27 89.059-36.891s36.891-55.656 36.891-89.059v-125.95c0-33.406-13.27-65.441-36.891-89.062-23.621-23.621-55.656-36.891-89.059-36.891zm115.46 125.95h-0.003906c0-2.7852-1.1055-5.4531-3.0742-7.4219s-4.6367-3.0742-7.4219-3.0742h-51.008c-11.488 0-22.512-4.5508-30.652-12.652-8.1445-8.1055-12.746-19.105-12.801-30.594v-51.219c0-5.7969-4.6992-10.496-10.496-10.496-5.7969 0-10.496 4.6992-10.496 10.496v51.219c0 17.074 6.793 33.445 18.887 45.496 12.094 12.055 28.484 18.797 45.559 18.742h51.008c2.7852 0 5.4531-1.1055 7.4219-3.0742s3.0742-4.6406 3.0742-7.4219zm-167.94 20.992c0-2.7852-1.1055-5.4531-3.0742-7.4219s-4.6406-3.0742-7.4219-3.0742h-83.969c-5.7969 0-10.496 4.6992-10.496 10.496s4.6992 10.496 10.496 10.496h83.969c2.7812 0 5.4531-1.1055 7.4219-3.0742s3.0742-4.6406 3.0742-7.4219zm83.969 62.977h-0.003906c0-2.7852-1.1055-5.4531-3.0742-7.4219-1.9648-1.9688-4.6367-3.0742-7.4219-3.0742h-167.93c-5.7969 0-10.496 4.6992-10.496 10.496 0 5.7969 4.6992 10.496 10.496 10.496h167.94-0.003906c2.7852 0 5.457-1.1094 7.4219-3.0742 1.9688-1.9688 3.0742-4.6406 3.0742-7.4219zm-41.984 62.977v-0.003906c0-2.7812-1.1094-5.4531-3.0742-7.418-1.9688-1.9688-4.6406-3.0742-7.4219-3.0742h-125.95c-5.7969 0-10.496 4.6992-10.496 10.492 0 5.7969 4.6992 10.496 10.496 10.496h125.95c2.7812 0 5.4531-1.1055 7.4219-3.0742 1.9648-1.9648 3.0742-4.6367 3.0742-7.4219z"></path>

      </g>
     <g id="IconSvg_iconCarrier">
      <path xmlns="http://www.w3.org/2000/svg" d="m462.98 232.06c27.836 0 54.531 11.059 74.215 30.742 19.684 19.684 30.742 46.379 30.742 74.219v125.95c0 27.836-11.059 54.531-30.742 74.215s-46.379 30.742-74.215 30.742h-125.95c-27.84 0-54.535-11.059-74.219-30.742-19.684-19.684-30.742-46.379-30.742-74.215v-125.95c0-27.84 11.059-54.535 30.742-74.219 19.684-19.684 46.379-30.742 74.219-30.742h125.95m0-20.992h-125.95c-33.406 0-65.441 13.27-89.062 36.891-23.621 23.621-36.891 55.656-36.891 89.062v125.95c0 33.402 13.27 65.438 36.891 89.059 23.621 23.621 55.656 36.891 89.062 36.891h125.95c33.402 0 65.438-13.27 89.059-36.891s36.891-55.656 36.891-89.059v-125.95c0-33.406-13.27-65.441-36.891-89.062-23.621-23.621-55.656-36.891-89.059-36.891zm115.46 125.95h-0.003906c0-2.7852-1.1055-5.4531-3.0742-7.4219s-4.6367-3.0742-7.4219-3.0742h-51.008c-11.488 0-22.512-4.5508-30.652-12.652-8.1445-8.1055-12.746-19.105-12.801-30.594v-51.219c0-5.7969-4.6992-10.496-10.496-10.496-5.7969 0-10.496 4.6992-10.496 10.496v51.219c0 17.074 6.793 33.445 18.887 45.496 12.094 12.055 28.484 18.797 45.559 18.742h51.008c2.7852 0 5.4531-1.1055 7.4219-3.0742s3.0742-4.6406 3.0742-7.4219zm-167.94 20.992c0-2.7852-1.1055-5.4531-3.0742-7.4219s-4.6406-3.0742-7.4219-3.0742h-83.969c-5.7969 0-10.496 4.6992-10.496 10.496s4.6992 10.496 10.496 10.496h83.969c2.7812 0 5.4531-1.1055 7.4219-3.0742s3.0742-4.6406 3.0742-7.4219zm83.969 62.977h-0.003906c0-2.7852-1.1055-5.4531-3.0742-7.4219-1.9648-1.9688-4.6367-3.0742-7.4219-3.0742h-167.93c-5.7969 0-10.496 4.6992-10.496 10.496 0 5.7969 4.6992 10.496 10.496 10.496h167.94-0.003906c2.7852 0 5.457-1.1094 7.4219-3.0742 1.9688-1.9688 3.0742-4.6406 3.0742-7.4219zm-41.984 62.977v-0.003906c0-2.7812-1.1094-5.4531-3.0742-7.418-1.9688-1.9688-4.6406-3.0742-7.4219-3.0742h-125.95c-5.7969 0-10.496 4.6992-10.496 10.492 0 5.7969 4.6992 10.496 10.496 10.496h125.95c2.7812 0 5.4531-1.1055 7.4219-3.0742 1.9648-1.9648 3.0742-4.6367 3.0742-7.4219z"></path>

      </g>
      </svg>