<?xml version="1.0" standalone="no"?>
<!DOCTYPE svg PUBLIC "-//W3C//DTD SVG 20010904//EN"
 "http://www.w3.org/TR/2001/REC-SVG-20010904/DTD/svg10.dtd">
<svg version="1.0" xmlns="http://www.w3.org/2000/svg"
 width="512.000000pt" height="512.000000pt" viewBox="0 0 512.000000 512.000000"
 preserveAspectRatio="xMidYMid meet">

<g transform="translate(0.000000,512.000000) scale(0.100000,-0.100000)"
fill="#000000" stroke="none">
<path d="M1225 4560 c-48 -19 -50 -28 -50 -277 l0 -235 28 -24 c36 -31 71 -31
102 1 l25 24 0 230 c0 126 -3 237 -6 246 -6 15 -54 46 -71 44 -4 0 -17 -4 -28
-9z"/>
<path d="M421 4223 c-11 -10 -24 -33 -27 -51 -6 -32 -1 -39 162 -202 147 -149
172 -170 200 -170 41 0 72 26 80 68 7 33 2 38 -162 203 -147 146 -174 169
-201 169 -17 0 -40 -8 -52 -17z"/>
<path d="M1837 4072 c-180 -181 -187 -194 -146 -246 15 -20 29 -26 57 -26 35
0 48 11 198 163 89 89 164 170 167 180 8 22 -9 66 -31 83 -9 8 -31 14 -47 14
-27 0 -54 -23 -198 -168z"/>
<path d="M3318 4141 c-134 -44 -226 -143 -259 -277 -7 -27 -13 -50 -13 -51 -1
-1 -24 4 -51 12 -202 61 -439 -82 -471 -285 -5 -33 -10 -40 -23 -34 -9 4 -38
13 -66 20 -185 51 -389 -59 -451 -243 -10 -29 -21 -53 -24 -53 -3 0 -118 113
-255 250 -138 138 -268 261 -290 274 -202 119 -458 36 -557 -180 -19 -41 -23
-66 -23 -154 0 -179 -37 -132 652 -822 412 -412 592 -599 582 -603 -8 -3 -123
45 -254 106 -209 97 -248 112 -306 116 -136 11 -248 -51 -309 -171 -32 -63
-35 -77 -34 -150 0 -67 5 -91 27 -136 14 -31 41 -69 59 -86 51 -48 1017 -690
1089 -724 67 -31 923 -327 1044 -361 289 -80 625 -14 867 171 35 26 181 166
324 311 267 270 321 336 384 472 99 213 117 481 48 707 -20 66 -259 633 -305
725 -62 122 -129 197 -595 661 -447 446 -476 473 -533 494 -82 31 -184 35
-257 11z m225 -174 c23 -14 238 -223 478 -464 328 -329 449 -457 486 -514 53
-81 312 -673 355 -809 20 -64 23 -96 23 -220 0 -198 -31 -305 -133 -465 -57
-88 -538 -573 -631 -635 -173 -116 -385 -167 -581 -140 -47 6 -137 28 -200 50
-437 146 -892 306 -942 331 -93 47 -1011 663 -1041 698 -86 103 -9 261 126
261 23 0 121 -40 285 -115 212 -97 258 -115 300 -115 111 0 191 110 162 221
-11 40 -71 103 -615 649 -516 518 -605 611 -614 645 -51 188 102 343 286 290
57 -16 66 -24 563 -521 482 -481 507 -504 542 -504 28 0 42 6 57 26 40 51 33
65 -138 238 -146 149 -161 167 -176 219 -31 107 11 208 110 260 52 27 145 29
195 3 19 -10 132 -114 251 -232 191 -190 219 -214 247 -214 44 0 82 38 82 81
0 27 -21 52 -154 188 -84 86 -161 171 -171 190 -24 48 -22 137 4 188 51 102
177 150 279 108 24 -10 115 -93 252 -229 118 -118 225 -217 238 -221 49 -15
102 30 102 87 0 13 -59 81 -169 192 -179 182 -191 200 -191 292 0 84 71 177
156 204 47 15 131 4 177 -23z"/>
<path d="M95 3435 c-33 -32 -33 -78 0 -110 l24 -25 231 0 231 0 24 25 c33 32
33 78 0 110 l-24 25 -231 0 -231 0 -24 -25z"/>
<path d="M556 2790 c-163 -163 -168 -170 -162 -202 8 -41 39 -68 79 -68 27 0
54 23 201 169 164 165 169 170 162 203 -8 42 -39 68 -80 68 -28 0 -53 -21
-200 -170z"/>
</g>
</svg>
