<svg id="svg" fill="#ffffff" stroke="#ffffff" width="23" height="23" version="1.1" viewBox="144 144 512 512" xmlns="http://www.w3.org/2000/svg">
    <g id="IconSvg_bgCarrier" stroke-width="0"></g>
    <g id="IconSvg_tracerCarrier" stroke-linecap="round" stroke-linejoin="round" stroke="#CCCCCC" stroke-width="0">
      <defs xmlns="http://www.w3.org/2000/svg">
  <clipPath id="a">
   <path d="m201 148.09h428v503.81h-428z"></path>
  </clipPath>
 </defs>
<g xmlns="http://www.w3.org/2000/svg" clip-path="url(#a)">
  <path d="m585.58 148.09h-341.33c-23.695 0-42.906 19.211-42.906 42.906v2.3008h41.969c9.2539-7.1523 20.691-11.117 32.695-11.117 29.523 0 53.539 24.016 53.539 53.539 0 29.539-24.031 53.555-53.539 53.555-11.875 0-23.328-3.9648-32.629-11.117h-42.035v79.434h41.969c9.2539-7.1719 20.691-11.117 32.695-11.117 29.523 0 53.539 24.016 53.539 53.539s-24.031 53.539-53.539 53.539c-11.875 0-23.328-3.9453-32.629-11.102h-42.035v79.434h41.969c9.2539-7.1719 20.691-11.152 32.695-11.152 29.523 0 53.539 24.031 53.539 53.555 0 29.523-24.031 53.539-53.539 53.539-11.875 0-23.328-3.9453-32.629-11.102h-42.035v2.2852c0 23.68 19.211 42.891 42.906 42.891h341.33c23.68 0 42.906-19.211 42.906-42.906v-418c0-23.695-19.23-42.906-42.906-42.906zm-25.074 378.11-26.668 13.988c-4.6367 2.4336-11.051 3.125-17.18 2.1992-88.234-9.7422-132.52-117.55-133.59-119.67-28.918-56.258-30.246-116.68-7.5391-155.02 2.8203-5.543 7.1719-10.379 11.805-12.73l26.887-13.52c10.363-5.2578 23.023-1.0742 28.266 9.3047l14.359 55.922c2.6367 12.93-0.20312 23.578-12.578 29.91l-12.613 6.2305c-6.8867 3.543-8.5469 2.418-13.266 2.1836-12.258-0.62109-15.398 7.9609-14.375 14.039 2.6719 15.082 7.2031 30.312 14.66 44.789 0.21875 0.40234 22.453 43.176 40.305 62.219 4.2148 4.4688 13.133 6.8164 19.801-3.543 2.5352-3.9297 2.6016-5.9453 9.4727-9.4727l12.395-6.6484c12.395-6.3828 22.703-2.4531 31.656 7.2227l37.113 44.27c5.3672 10.246 1.3867 22.957-8.9062 28.332z"></path>
 </g>
<path xmlns="http://www.w3.org/2000/svg" d="m251.94 256.25c5.8125 6.7344 14.426 11.102 24.082 11.102 17.48 0 31.656-14.176 31.656-31.656 0-17.449-14.176-31.621-31.656-31.621-9.6406 0-18.273 4.2305-24.082 11.117l-59.887-0.003906c-11.352 0.019531-20.539 9.2031-20.539 20.539 0 11.336 9.1875 20.523 20.539 20.523z"></path>
<path xmlns="http://www.w3.org/2000/svg" d="m251.94 420.54c5.8125 6.75 14.426 11.102 24.082 11.102 17.48 0 31.656-14.156 31.656-31.641 0-17.48-14.176-31.621-31.656-31.621-9.6406 0-18.273 4.1992-24.082 11.102l-59.887-0.003907c-11.352 0-20.539 9.1875-20.539 20.523 0 11.352 9.1875 20.539 20.539 20.539z"></path>
<path xmlns="http://www.w3.org/2000/svg" d="m251.94 584.81c5.8125 6.75 14.426 11.117 24.082 11.117 17.48 0 31.656-14.176 31.656-31.641 0-17.48-14.176-31.656-31.656-31.656-9.6406 0-18.273 4.2305-24.082 11.133l-59.887 0.003906c-11.352 0.015625-20.539 9.1875-20.539 20.52 0 11.352 9.1875 20.523 20.539 20.523z"></path>

      </g>
     <g id="IconSvg_iconCarrier">
      <defs xmlns="http://www.w3.org/2000/svg">
  <clipPath id="a">
   <path d="m201 148.09h428v503.81h-428z"></path>
  </clipPath>
 </defs>
<g xmlns="http://www.w3.org/2000/svg" clip-path="url(#a)">
  <path d="m585.58 148.09h-341.33c-23.695 0-42.906 19.211-42.906 42.906v2.3008h41.969c9.2539-7.1523 20.691-11.117 32.695-11.117 29.523 0 53.539 24.016 53.539 53.539 0 29.539-24.031 53.555-53.539 53.555-11.875 0-23.328-3.9648-32.629-11.117h-42.035v79.434h41.969c9.2539-7.1719 20.691-11.117 32.695-11.117 29.523 0 53.539 24.016 53.539 53.539s-24.031 53.539-53.539 53.539c-11.875 0-23.328-3.9453-32.629-11.102h-42.035v79.434h41.969c9.2539-7.1719 20.691-11.152 32.695-11.152 29.523 0 53.539 24.031 53.539 53.555 0 29.523-24.031 53.539-53.539 53.539-11.875 0-23.328-3.9453-32.629-11.102h-42.035v2.2852c0 23.68 19.211 42.891 42.906 42.891h341.33c23.68 0 42.906-19.211 42.906-42.906v-418c0-23.695-19.23-42.906-42.906-42.906zm-25.074 378.11-26.668 13.988c-4.6367 2.4336-11.051 3.125-17.18 2.1992-88.234-9.7422-132.52-117.55-133.59-119.67-28.918-56.258-30.246-116.68-7.5391-155.02 2.8203-5.543 7.1719-10.379 11.805-12.73l26.887-13.52c10.363-5.2578 23.023-1.0742 28.266 9.3047l14.359 55.922c2.6367 12.93-0.20312 23.578-12.578 29.91l-12.613 6.2305c-6.8867 3.543-8.5469 2.418-13.266 2.1836-12.258-0.62109-15.398 7.9609-14.375 14.039 2.6719 15.082 7.2031 30.312 14.66 44.789 0.21875 0.40234 22.453 43.176 40.305 62.219 4.2148 4.4688 13.133 6.8164 19.801-3.543 2.5352-3.9297 2.6016-5.9453 9.4727-9.4727l12.395-6.6484c12.395-6.3828 22.703-2.4531 31.656 7.2227l37.113 44.27c5.3672 10.246 1.3867 22.957-8.9062 28.332z"></path>
 </g>
<path xmlns="http://www.w3.org/2000/svg" d="m251.94 256.25c5.8125 6.7344 14.426 11.102 24.082 11.102 17.48 0 31.656-14.176 31.656-31.656 0-17.449-14.176-31.621-31.656-31.621-9.6406 0-18.273 4.2305-24.082 11.117l-59.887-0.003906c-11.352 0.019531-20.539 9.2031-20.539 20.539 0 11.336 9.1875 20.523 20.539 20.523z"></path>
<path xmlns="http://www.w3.org/2000/svg" d="m251.94 420.54c5.8125 6.75 14.426 11.102 24.082 11.102 17.48 0 31.656-14.156 31.656-31.641 0-17.48-14.176-31.621-31.656-31.621-9.6406 0-18.273 4.1992-24.082 11.102l-59.887-0.003907c-11.352 0-20.539 9.1875-20.539 20.523 0 11.352 9.1875 20.539 20.539 20.539z"></path>
<path xmlns="http://www.w3.org/2000/svg" d="m251.94 584.81c5.8125 6.75 14.426 11.117 24.082 11.117 17.48 0 31.656-14.176 31.656-31.641 0-17.48-14.176-31.656-31.656-31.656-9.6406 0-18.273 4.2305-24.082 11.133l-59.887 0.003906c-11.352 0.015625-20.539 9.1875-20.539 20.52 0 11.352 9.1875 20.523 20.539 20.523z"></path>

      </g>
      </svg>