<svg id="svg" fill="#ffffff" stroke="#ffffff" width="23" height="23" version="1.1" viewBox="144 144 512 512" xmlns="http://www.w3.org/2000/svg">
    <g id="IconSvg_bgCarrier" stroke-width="0"></g>
    <g id="IconSvg_tracerCarrier" stroke-linecap="round" stroke-linejoin="round" stroke="#CCCCCC" stroke-width="0">
      <g xmlns="http://www.w3.org/2000/svg">
  <path d="m552.71 355.29v-0.70703c-0.027344-5.9297 2.3594-11.613 6.6133-15.746v-0.62891h-5.9023c-5.8906 0-11.535-2.3398-15.699-6.5039-4.1641-4.1602-6.5-9.8086-6.5-15.695 0-5.8867 2.3359-11.535 6.5-15.695 4.1641-4.1641 9.8086-6.5039 15.699-6.5039v-0.62891c-4.2539-4.1328-6.6406-9.8164-6.6133-15.746v-0.70703c-0.003906-3.9844 1.0781-7.8906 3.1328-11.305 2.0508-3.4102 4.9961-6.1992 8.5156-8.0586v-0.62891l-229.31-0.003907v157.12h218.53v-0.62891c-3.5195-1.8633-6.4648-4.6484-8.5156-8.0625-2.0547-3.4102-3.1367-7.3203-3.1328-11.301 0-5.8867 2.3398-11.535 6.5-15.699 4.1641-4.1602 9.8125-6.5 15.699-6.5h0.62891v-0.62891c-4.0781-4.2109-6.293-9.8867-6.1406-15.746zm-108.63 41.801c-16.328 0-31.984-6.4844-43.527-18.031-11.547-11.543-18.031-27.203-18.031-43.527 0-16.328 6.4844-31.984 18.031-43.531 11.543-11.543 27.199-18.027 43.527-18.027s31.984 6.4844 43.527 18.027c11.547 11.547 18.031 27.203 18.031 43.531-0.019531 16.32-6.5117 31.965-18.055 43.504-11.539 11.543-27.184 18.035-43.504 18.055z"></path>
  <path d="m396.22 335.53c0.023438 12.688 5.082 24.852 14.066 33.809 8.9844 8.9609 21.16 13.988 33.848 13.973 12.691-0.011719 24.855-5.0664 33.82-14.047 8.9648-8.9766 13.996-21.152 13.992-33.84-0.007812-12.688-5.0547-24.855-14.027-33.828-8.9766-8.9688-21.148-14.008-33.836-14.008-12.703 0.019531-24.875 5.082-33.848 14.07s-14.016 21.168-14.016 33.871zm79.98-25.898c1.6836 1.8828 1.6836 4.7305 0 6.6094l-35.188 44.398c-1.1445 1.4414-2.8828 2.2812-4.7227 2.2852-1.8672 0.019531-3.6406-0.82422-4.8008-2.2852l-19.836-23.617-0.003906 0.003907c-1.4609-1.8164-1.4609-4.4062 0-6.2188 1.3984-1.7891 3.8477-2.375 5.9062-1.418l18.344 14.406 33.613-34.008h-0.003907c1.8555-1.7773 4.7578-1.8438 6.6914-0.15625z"></path>
  <path d="m592.71 468.64v-4.0156l4.0938 0.003906c4 0 7.2422-3.2422 7.2422-7.2422v-23.617c-0.12891-3.9062-3.3359-7.0078-7.2422-7.0078h-281.03v-119.89c-22.492 0.48828-43.957 9.4922-60.066 25.191l-85.805 86.043c-3.7812 3.5977-5.9609 8.5586-6.0625 13.773v19.367c-3.4336 0.31641-6.6445 1.832-9.0781 4.2773-2.4297 2.4453-3.9258 5.668-4.2227 9.1055h8.4219c5.3906 0 9.7617 4.3711 9.7617 9.7617s-4.3711 9.7617-9.7617 9.7617h-8.5v0.62891c0 3.9023 1.5508 7.6484 4.3086 10.406 2.7617 2.7617 6.5078 4.3125 10.41 4.3125h21.02c2.9062-13.793 12.012-25.473 24.68-31.66s27.477-6.1875 40.145 0c12.664 6.1875 21.77 17.867 24.68 31.66h205.46c2.9062-13.793 12.012-25.473 24.68-31.66 12.668-6.1875 27.477-6.1875 40.145 0 12.664 6.1875 21.77 17.867 24.68 31.66h21.02c3.9023 0 7.6484-1.5508 10.406-4.3125 2.7617-2.7578 4.3125-6.5039 4.3125-10.406v-1.4961c-0.011719-3.7188-1.4297-7.2969-3.9688-10.016-2.543-2.7148-6.0156-4.3672-9.7266-4.6289zm-295.04-58.723c0 0.98047-0.39062 1.9219-1.0859 2.6172-0.69531 0.69141-1.6328 1.082-2.6172 1.082h-86.594 0.003906c-1.5195 0.019531-2.8984-0.89453-3.4727-2.3047-0.57031-1.4062-0.22656-3.0234 0.875-4.0703l63.605-63.605c1.3398-1.3281 3.1523-2.0625 5.0391-2.0469h20.625c2.043 0 3.6992 1.6562 3.6992 3.6992z"></path>
  <path d="m567.99 267.75h66.441c5.0859 0 9.2109 5.0859 9.2109 9.2109v0.62891c0 5.0859-4.125 9.2109-9.2109 9.2109h-66.441c-5.0859 0-9.2109-5.0859-9.2109-9.2109v-0.62891c0-5.0859 4.125-9.2109 9.2109-9.2109z"></path>
  <path d="m552.16 306.56h66.441c5.0859 0 9.2109 5.0859 9.2109 9.2109v0.62891c0 5.0859-4.125 9.2109-9.2109 9.2109h-66.441c-5.0859 0-9.2109-5.0859-9.2109-9.2109v-0.62891c0-5.0859 4.125-9.2109 9.2109-9.2109z"></path>
  <path d="m573.89 345.37h66.441c5.0859 0 9.2109 5.0859 9.2109 9.2109v0.62891c0 5.0859-4.125 9.2109-9.2109 9.2109h-66.441c-5.0859 0-9.2109-5.0859-9.2109-9.2109v-0.62891c0-5.0859 4.125-9.2109 9.2109-9.2109z"></path>
  <path d="m557.44 384.18h66.441c5.0859 0 9.2109 5.0859 9.2109 9.2109v0.62891c0 5.0859-4.125 9.2109-9.2109 9.2109h-66.441c-5.0859 0-9.2109-5.0859-9.2109-9.2109v-0.62891c0-5.0859 4.125-9.2109 9.2109-9.2109z"></path>
  <path d="m559.8 509.18c0 18.738-15.191 33.93-33.93 33.93-18.738 0-33.926-15.191-33.926-33.93 0-18.738 15.188-33.93 33.926-33.93 18.738 0 33.93 15.191 33.93 33.93"></path>
  <path d="m264.84 509.18c0 18.738-15.191 33.93-33.93 33.93s-33.926-15.191-33.926-33.93c0-18.738 15.188-33.93 33.926-33.93s33.93 15.191 33.93 33.93"></path>
 </g>

      </g>
     <g id="IconSvg_iconCarrier">
      <g xmlns="http://www.w3.org/2000/svg">
  <path d="m552.71 355.29v-0.70703c-0.027344-5.9297 2.3594-11.613 6.6133-15.746v-0.62891h-5.9023c-5.8906 0-11.535-2.3398-15.699-6.5039-4.1641-4.1602-6.5-9.8086-6.5-15.695 0-5.8867 2.3359-11.535 6.5-15.695 4.1641-4.1641 9.8086-6.5039 15.699-6.5039v-0.62891c-4.2539-4.1328-6.6406-9.8164-6.6133-15.746v-0.70703c-0.003906-3.9844 1.0781-7.8906 3.1328-11.305 2.0508-3.4102 4.9961-6.1992 8.5156-8.0586v-0.62891l-229.31-0.003907v157.12h218.53v-0.62891c-3.5195-1.8633-6.4648-4.6484-8.5156-8.0625-2.0547-3.4102-3.1367-7.3203-3.1328-11.301 0-5.8867 2.3398-11.535 6.5-15.699 4.1641-4.1602 9.8125-6.5 15.699-6.5h0.62891v-0.62891c-4.0781-4.2109-6.293-9.8867-6.1406-15.746zm-108.63 41.801c-16.328 0-31.984-6.4844-43.527-18.031-11.547-11.543-18.031-27.203-18.031-43.527 0-16.328 6.4844-31.984 18.031-43.531 11.543-11.543 27.199-18.027 43.527-18.027s31.984 6.4844 43.527 18.027c11.547 11.547 18.031 27.203 18.031 43.531-0.019531 16.32-6.5117 31.965-18.055 43.504-11.539 11.543-27.184 18.035-43.504 18.055z"></path>
  <path d="m396.22 335.53c0.023438 12.688 5.082 24.852 14.066 33.809 8.9844 8.9609 21.16 13.988 33.848 13.973 12.691-0.011719 24.855-5.0664 33.82-14.047 8.9648-8.9766 13.996-21.152 13.992-33.84-0.007812-12.688-5.0547-24.855-14.027-33.828-8.9766-8.9688-21.148-14.008-33.836-14.008-12.703 0.019531-24.875 5.082-33.848 14.07s-14.016 21.168-14.016 33.871zm79.98-25.898c1.6836 1.8828 1.6836 4.7305 0 6.6094l-35.188 44.398c-1.1445 1.4414-2.8828 2.2812-4.7227 2.2852-1.8672 0.019531-3.6406-0.82422-4.8008-2.2852l-19.836-23.617-0.003906 0.003907c-1.4609-1.8164-1.4609-4.4062 0-6.2188 1.3984-1.7891 3.8477-2.375 5.9062-1.418l18.344 14.406 33.613-34.008h-0.003907c1.8555-1.7773 4.7578-1.8438 6.6914-0.15625z"></path>
  <path d="m592.71 468.64v-4.0156l4.0938 0.003906c4 0 7.2422-3.2422 7.2422-7.2422v-23.617c-0.12891-3.9062-3.3359-7.0078-7.2422-7.0078h-281.03v-119.89c-22.492 0.48828-43.957 9.4922-60.066 25.191l-85.805 86.043c-3.7812 3.5977-5.9609 8.5586-6.0625 13.773v19.367c-3.4336 0.31641-6.6445 1.832-9.0781 4.2773-2.4297 2.4453-3.9258 5.668-4.2227 9.1055h8.4219c5.3906 0 9.7617 4.3711 9.7617 9.7617s-4.3711 9.7617-9.7617 9.7617h-8.5v0.62891c0 3.9023 1.5508 7.6484 4.3086 10.406 2.7617 2.7617 6.5078 4.3125 10.41 4.3125h21.02c2.9062-13.793 12.012-25.473 24.68-31.66s27.477-6.1875 40.145 0c12.664 6.1875 21.77 17.867 24.68 31.66h205.46c2.9062-13.793 12.012-25.473 24.68-31.66 12.668-6.1875 27.477-6.1875 40.145 0 12.664 6.1875 21.77 17.867 24.68 31.66h21.02c3.9023 0 7.6484-1.5508 10.406-4.3125 2.7617-2.7578 4.3125-6.5039 4.3125-10.406v-1.4961c-0.011719-3.7188-1.4297-7.2969-3.9688-10.016-2.543-2.7148-6.0156-4.3672-9.7266-4.6289zm-295.04-58.723c0 0.98047-0.39062 1.9219-1.0859 2.6172-0.69531 0.69141-1.6328 1.082-2.6172 1.082h-86.594 0.003906c-1.5195 0.019531-2.8984-0.89453-3.4727-2.3047-0.57031-1.4062-0.22656-3.0234 0.875-4.0703l63.605-63.605c1.3398-1.3281 3.1523-2.0625 5.0391-2.0469h20.625c2.043 0 3.6992 1.6562 3.6992 3.6992z"></path>
  <path d="m567.99 267.75h66.441c5.0859 0 9.2109 5.0859 9.2109 9.2109v0.62891c0 5.0859-4.125 9.2109-9.2109 9.2109h-66.441c-5.0859 0-9.2109-5.0859-9.2109-9.2109v-0.62891c0-5.0859 4.125-9.2109 9.2109-9.2109z"></path>
  <path d="m552.16 306.56h66.441c5.0859 0 9.2109 5.0859 9.2109 9.2109v0.62891c0 5.0859-4.125 9.2109-9.2109 9.2109h-66.441c-5.0859 0-9.2109-5.0859-9.2109-9.2109v-0.62891c0-5.0859 4.125-9.2109 9.2109-9.2109z"></path>
  <path d="m573.89 345.37h66.441c5.0859 0 9.2109 5.0859 9.2109 9.2109v0.62891c0 5.0859-4.125 9.2109-9.2109 9.2109h-66.441c-5.0859 0-9.2109-5.0859-9.2109-9.2109v-0.62891c0-5.0859 4.125-9.2109 9.2109-9.2109z"></path>
  <path d="m557.44 384.18h66.441c5.0859 0 9.2109 5.0859 9.2109 9.2109v0.62891c0 5.0859-4.125 9.2109-9.2109 9.2109h-66.441c-5.0859 0-9.2109-5.0859-9.2109-9.2109v-0.62891c0-5.0859 4.125-9.2109 9.2109-9.2109z"></path>
  <path d="m559.8 509.18c0 18.738-15.191 33.93-33.93 33.93-18.738 0-33.926-15.191-33.926-33.93 0-18.738 15.188-33.93 33.926-33.93 18.738 0 33.93 15.191 33.93 33.93"></path>
  <path d="m264.84 509.18c0 18.738-15.191 33.93-33.93 33.93s-33.926-15.191-33.926-33.93c0-18.738 15.188-33.93 33.926-33.93s33.93 15.191 33.93 33.93"></path>
 </g>

      </g>
      </svg>