<svg width="33.403992" height="36.000122" viewBox="0 0 33.404 36.0001" fill="none" xmlns="http://www.w3.org/2000/svg" xmlns:xlink="http://www.w3.org/1999/xlink">
	<defs/>
	<path id="Vector" d="M32.38 5.57C32.29 5.57 23.49 4.66 17.36 0.21C16.97 -0.08 16.43 -0.08 16.03 0.21C9.9 4.66 1.11 5.57 1.02 5.57C0.44 5.63 0 6.12 0 6.7C0 6.94 0.02 12.74 1.99 19.24C3.16 23.1 4.78 26.39 6.8 29.04C9.36 32.41 12.58 34.73 16.35 35.94C16.46 35.98 16.58 36 16.7 36C16.81 36 16.93 35.98 17.04 35.94C20.82 34.73 24.03 32.41 26.6 29.04C28.62 26.39 30.23 23.1 31.4 19.24C33.38 12.74 33.4 6.94 33.4 6.7C33.4 6.12 32.96 5.63 32.38 5.57ZM29.57 17.4C29.56 17.41 29.55 17.42 29.54 17.43L14.33 32.64C13.32 32.11 12.37 31.47 11.49 30.73L30.75 11.46C30.52 13.18 30.16 15.24 29.57 17.4ZM5.07 21.23L21.31 4.98C22.5 5.49 23.68 5.91 24.8 6.26L6.56 24.49C6.02 23.48 5.52 22.39 5.07 21.23ZM16.7 2.51C17.49 3.04 18.31 3.52 19.14 3.95L4.24 18.85C4.22 18.78 4.2 18.71 4.17 18.63C3.8 17.41 3.5 16.22 3.26 15.07L14.52 3.81C15.26 3.42 15.99 2.98 16.7 2.51ZM9 6.13L2.77 12.36C2.46 10.34 2.34 8.68 2.29 7.69C3.65 7.5 6.16 7.05 9 6.13ZM7.75 26.5L27.3 6.95C28.9 7.34 30.24 7.57 31.1 7.69C31.1 7.77 31.09 7.84 31.09 7.92L9.84 29.17C9.09 28.37 8.4 27.48 7.75 26.5ZM16.7 33.67C16.65 33.65 16.6 33.63 16.56 33.62L27.9 22.28C25.38 28.15 21.63 31.97 16.7 33.67Z" fill="#F6A700" fill-opacity="1.000000" fill-rule="nonzero"/>
</svg>
