<?xml version="1.0" standalone="no"?>
<!DOCTYPE svg PUBLIC "-//W3C//DTD SVG 20010904//EN"
 "http://www.w3.org/TR/2001/REC-SVG-20010904/DTD/svg10.dtd">
<svg version="1.0" xmlns="http://www.w3.org/2000/svg"
 width="2339.000000pt" height="1654.000000pt" viewBox="0 0 2339.000000 1654.000000"
 preserveAspectRatio="xMidYMid meet">

<g transform="translate(0.000000,1654.000000) scale(0.100000,-0.100000)"
fill="#000000" stroke="none">
<path d="M11935 11415 c-27 -8 -67 -14 -87 -15 -21 0 -57 -6 -80 -14 -24 -8
-59 -17 -78 -21 -19 -3 -51 -13 -70 -21 -142 -61 -172 -76 -220 -111 -50 -36
-92 -76 -130 -123 -14 -17 -35 -41 -47 -54 -13 -13 -23 -32 -23 -43 0 -12 -10
-27 -22 -35 -20 -13 -22 -23 -22 -125 -1 -105 0 -113 24 -138 14 -14 42 -36
62 -48 21 -11 38 -23 38 -26 0 -3 -27 -25 -60 -48 -88 -63 -91 -85 -23 -190
29 -46 53 -87 53 -93 0 -5 8 -17 19 -27 10 -10 21 -33 25 -52 3 -19 14 -43 23
-53 10 -12 18 -46 23 -98 4 -45 12 -86 17 -91 6 -6 51 36 131 123 138 152 173
182 300 266 80 53 183 102 212 102 6 0 10 5 10 10 0 6 -4 10 -10 10 -24 0
-102 98 -138 173 -37 76 -91 230 -107 305 -4 18 -13 32 -21 32 -7 0 -64 -46
-124 -102 -61 -57 -126 -112 -143 -122 l-32 -19 -57 36 c-87 56 -137 152 -115
224 27 90 221 231 395 287 179 58 263 70 482 70 334 0 585 -57 910 -206 74
-34 714 -381 737 -400 22 -17 68 -5 71 19 3 19 -9 29 -75 63 -43 22 -105 55
-138 73 -33 19 -70 37 -83 41 -13 4 -51 26 -85 49 -34 23 -73 48 -87 55 -45
24 -244 123 -275 137 -16 7 -51 23 -76 34 -25 12 -50 21 -56 21 -6 0 -16 7
-23 15 -7 8 -25 15 -39 15 -15 0 -36 7 -47 15 -10 8 -39 15 -64 15 -25 0 -54
6 -65 14 -11 7 -42 17 -70 21 -27 4 -62 13 -77 21 -15 8 -50 14 -77 14 -28 0
-76 7 -108 15 -77 20 -406 20 -478 0z"/>
<path d="M14735 11415 c-22 -8 -63 -15 -91 -15 -31 0 -56 -5 -63 -14 -6 -7
-29 -16 -50 -20 -21 -3 -44 -13 -51 -21 -7 -8 -20 -15 -29 -15 -10 0 -26 -7
-37 -15 -10 -8 -27 -15 -36 -15 -10 0 -18 -5 -18 -10 0 -6 -8 -14 -17 -17 -25
-9 -76 -46 -86 -60 -4 -7 -12 -13 -18 -13 -5 0 -38 -29 -74 -65 -35 -36 -68
-65 -74 -65 -6 0 -11 -6 -11 -13 0 -7 -20 -33 -44 -58 -23 -25 -45 -50 -47
-56 -2 -6 -30 -32 -62 -58 -36 -29 -57 -53 -55 -63 4 -20 213 -127 326 -168
42 -15 81 -31 86 -35 13 -12 -12 -39 -36 -39 -25 0 -159 56 -298 124 -61 31
-114 56 -116 56 -11 0 -64 -92 -69 -123 -4 -20 -18 -50 -31 -68 -13 -18 -24
-39 -24 -46 0 -7 -9 -17 -20 -23 -11 -6 -20 -19 -20 -29 0 -9 -11 -27 -25 -39
-14 -12 -25 -32 -25 -45 0 -13 -9 -32 -20 -42 -11 -10 -20 -28 -20 -40 0 -12
-11 -31 -25 -43 -14 -12 -25 -32 -25 -45 0 -13 -9 -32 -20 -42 -11 -10 -20
-29 -20 -42 0 -13 -11 -35 -25 -49 -14 -14 -25 -36 -25 -49 0 -13 -8 -32 -19
-42 -10 -10 -21 -34 -25 -54 -3 -20 -15 -44 -26 -54 -12 -11 -20 -31 -20 -51
0 -21 -7 -38 -19 -46 -11 -8 -23 -27 -27 -43 -3 -17 -14 -39 -24 -50 -10 -11
-20 -35 -24 -53 -3 -19 -15 -45 -26 -59 -11 -14 -20 -34 -20 -44 0 -9 -11 -26
-24 -36 -13 -10 -31 -33 -40 -51 -9 -18 -20 -32 -25 -32 -5 0 -26 19 -46 43
-168 190 -347 336 -436 354 -16 3 -34 12 -40 19 -9 11 -44 14 -145 14 -132 0
-168 -7 -259 -50 -11 -5 -31 -14 -45 -20 -14 -6 -38 -19 -55 -30 -16 -11 -39
-24 -51 -29 -63 -28 -240 -277 -336 -472 -52 -106 -103 -243 -129 -348 -18
-73 -21 -39 -4 45 20 94 86 301 154 477 27 70 46 127 42 127 -3 0 -20 -15 -38
-33 -48 -49 -110 -173 -118 -237 -4 -30 -15 -64 -25 -75 -9 -11 -20 -39 -23
-63 -3 -24 -13 -52 -21 -61 -9 -10 -23 -58 -32 -106 -8 -49 -20 -97 -25 -106
-5 -10 -12 -73 -15 -141 -3 -68 -7 -136 -9 -153 -3 -21 6 -8 29 40 19 39 35
66 35 60 0 -5 -8 -68 -20 -140 -11 -71 -24 -211 -29 -309 l-10 -179 -47 -76
c-71 -117 -85 -130 -97 -88 -6 20 -7 21 -17 4 -6 -10 -9 -29 -7 -44 3 -23 25
-36 223 -130 121 -58 251 -116 288 -130 l68 -26 30 22 c17 12 81 58 142 101
201 141 402 334 615 592 31 37 57 66 59 64 2 -2 -7 -44 -22 -94 -14 -50 -25
-98 -25 -107 0 -20 23 -56 75 -120 23 -27 52 -65 64 -83 22 -31 22 -34 7 -66
-9 -19 -16 -39 -16 -45 0 -10 -23 -40 -77 -98 -13 -13 -23 -29 -23 -36 0 -6
-9 -20 -20 -32 -38 -37 -120 -147 -120 -160 0 -6 -9 -20 -20 -30 -11 -10 -20
-28 -20 -40 0 -11 -11 -36 -25 -55 -16 -22 -25 -47 -25 -72 0 -23 -7 -44 -19
-55 -10 -10 -22 -38 -26 -63 -4 -24 -17 -61 -28 -83 -17 -34 -19 -51 -14 -140
3 -56 13 -122 22 -147 9 -26 19 -92 22 -155 4 -79 11 -120 24 -145 11 -19 19
-45 19 -58 0 -30 52 -132 81 -158 55 -50 100 -33 63 24 -37 55 -103 199 -118
259 -77 295 -54 589 61 818 36 69 213 321 276 391 25 27 48 44 55 40 12 -7
256 -303 285 -346 22 -32 22 -26 -7 67 -34 106 -116 416 -116 434 0 16 47 66
54 58 2 -2 22 -69 44 -148 23 -79 43 -145 45 -147 2 -3 7 40 10 93 6 107 31
262 49 306 6 16 36 45 69 68 l59 40 6 -41 c11 -65 34 -45 34 29 0 33 5 41 41
64 22 15 47 27 54 27 17 0 27 -113 24 -256 -2 -60 1 -120 5 -134 15 -47 -22 1
-44 56 l-19 49 0 -80 c-1 -54 4 -90 15 -110 8 -16 20 -51 24 -78 20 -102 149
-221 295 -272 90 -31 302 -68 283 -50 -2 3 -47 16 -99 29 -137 35 -242 90
-312 166 -61 65 -103 129 -117 179 -12 42 -5 39 19 -6 39 -77 155 -169 288
-229 259 -118 488 -107 753 36 63 34 269 211 278 239 3 8 -15 -5 -39 -28 -50
-48 -114 -86 -161 -96 -18 -4 -39 -12 -47 -19 -23 -19 -240 -14 -282 6 -19 9
-52 25 -74 35 -98 45 -181 142 -216 251 -18 59 -20 82 -14 197 6 119 31 271
56 336 33 85 175 153 529 252 69 20 170 44 225 55 207 41 475 85 481 79 6 -6
-20 -134 -38 -182 -6 -16 -15 -77 -19 -134 -6 -71 -15 -114 -28 -135 -12 -20
-20 -57 -23 -108 -3 -46 -11 -86 -21 -101 -8 -13 -19 -42 -23 -63 -3 -21 -13
-51 -20 -65 -7 -14 -20 -67 -29 -117 -8 -51 -18 -99 -21 -107 -5 -11 -2 -13
10 -9 21 8 20 3 -9 -89 -14 -44 -25 -103 -25 -135 -1 -31 -8 -75 -17 -97 -8
-22 -19 -75 -23 -117 -6 -55 -14 -85 -29 -104 -15 -19 -21 -41 -21 -79 0 -36
-6 -60 -18 -76 -22 -27 -35 -98 -26 -133 5 -21 81 -91 303 -280 54 -47 38 -26
-82 101 -81 87 -94 118 -53 129 14 3 29 3 35 0 6 -4 80 -88 166 -186 109 -126
168 -186 195 -199 22 -11 40 -16 40 -13 0 4 -6 41 -14 82 -25 131 -30 377 -11
525 28 224 92 476 180 710 47 125 283 677 295 689 20 20 58 -4 80 -51 12 -27
35 -70 50 -98 42 -73 50 -93 50 -124 0 -15 7 -36 15 -47 8 -10 20 -37 26 -59
6 -22 17 -47 24 -55 7 -8 18 -32 24 -52 7 -20 18 -41 26 -48 7 -6 16 -23 20
-38 4 -15 15 -35 26 -45 10 -10 19 -29 19 -42 0 -13 7 -31 16 -39 8 -9 22 -36
30 -60 9 -25 22 -50 30 -57 8 -6 14 -17 14 -25 0 -7 11 -25 25 -40 14 -15 25
-34 25 -43 0 -9 9 -24 20 -34 11 -9 20 -25 20 -35 0 -10 11 -33 25 -52 14 -19
25 -38 25 -43 0 -7 81 -126 106 -156 2 -2 22 -5 46 -7 51 -5 261 -61 303 -82
47 -23 74 -52 113 -122 120 -218 307 -466 513 -682 l64 -67 115 -10 c148 -13
163 -19 194 -78 13 -26 49 -69 79 -96 39 -33 66 -67 88 -112 l32 -66 -18 -53
c-36 -107 -15 -129 254 -252 176 -81 215 -94 411 -144 230 -59 431 -90 575
-89 75 0 111 4 95 9 -32 10 -163 30 -196 30 -14 0 -40 6 -57 14 -42 17 -132
43 -182 51 -22 4 -59 13 -83 21 -23 8 -58 14 -77 14 -33 0 -51 6 -160 55 -27
12 -61 26 -75 30 -70 21 -439 220 -428 231 2 1 41 -10 86 -27 102 -36 209 -63
327 -84 109 -19 442 -45 505 -39 25 2 106 9 180 15 198 16 430 64 730 151 233
67 575 221 823 370 169 103 211 139 82 73 -38 -19 -77 -35 -87 -35 -10 0 -18
-4 -18 -9 0 -8 -55 -30 -130 -52 -19 -6 -49 -17 -67 -25 -17 -8 -39 -14 -50
-14 -10 0 -27 -7 -37 -15 -11 -8 -31 -15 -45 -15 -14 0 -35 -7 -45 -15 -11 -8
-36 -15 -55 -15 -20 -1 -47 -7 -61 -15 -14 -8 -43 -14 -65 -15 -22 0 -51 -6
-65 -13 -15 -8 -53 -17 -85 -20 -33 -4 -78 -13 -100 -21 -22 -9 -72 -15 -111
-16 -40 0 -87 -7 -107 -15 -51 -21 -554 -22 -595 -1 -15 7 -66 16 -115 19 -48
2 -93 9 -100 15 -6 6 -39 13 -72 17 -33 4 -72 14 -87 21 -15 8 -40 14 -55 14
-15 0 -37 7 -47 15 -11 8 -30 15 -42 15 -12 0 -27 7 -34 15 -7 8 -21 15 -32
15 -11 0 -32 6 -46 14 -15 8 -52 26 -82 41 -30 14 -68 35 -85 45 -16 11 -37
23 -45 27 -104 48 -370 222 -500 327 -167 135 -461 446 -604 640 -83 111 -197
290 -270 423 -68 123 -247 505 -240 512 2 2 79 3 171 2 201 -2 323 15 473 66
403 137 682 356 980 771 129 180 153 220 275 467 73 149 163 348 199 443 74
194 187 549 180 566 -6 15 -249 177 -277 184 -12 3 -40 17 -62 31 -61 39 -75
47 -135 76 -30 14 -63 30 -72 35 -44 25 -160 -9 -173 -50 -3 -11 -15 -22 -26
-25 -10 -4 -19 -11 -19 -16 0 -5 -8 -12 -17 -16 -10 -3 -46 -28 -79 -55 -34
-26 -66 -48 -72 -48 -5 0 -12 -7 -16 -15 -3 -8 -11 -15 -17 -15 -7 0 -19 -7
-28 -16 -14 -13 -109 -78 -159 -109 -10 -5 -21 -16 -25 -22 -4 -7 -13 -13 -19
-13 -6 0 -30 -16 -54 -35 -23 -19 -45 -35 -49 -35 -3 0 -11 -5 -18 -10 -13
-11 -101 -75 -137 -100 -53 -36 -166 -121 -181 -135 -9 -8 -21 -15 -27 -15 -7
0 -12 -4 -12 -8 0 -5 -10 -14 -22 -21 -13 -6 -35 -19 -49 -29 -15 -9 -55 -35
-89 -57 -107 -69 -146 -97 -272 -197 -83 -67 -157 -115 -228 -150 -58 -29
-140 -77 -183 -106 -43 -30 -80 -53 -81 -51 -6 6 469 722 602 908 68 95 122
178 119 184 -3 7 -27 20 -53 30 -27 10 -62 25 -77 32 -16 8 -33 15 -39 15 -6
0 -38 13 -72 29 -214 102 -218 103 -293 105 -66 1 -74 -1 -101 -28 -17 -15
-33 -39 -36 -52 -4 -13 -11 -24 -16 -24 -5 0 -16 -13 -25 -30 -9 -16 -22 -30
-30 -30 -8 0 -15 -6 -15 -14 0 -8 -20 -35 -45 -59 -25 -25 -45 -50 -45 -56 0
-6 -11 -21 -25 -33 -14 -12 -25 -26 -25 -31 0 -5 -36 -43 -79 -84 -48 -45 -88
-93 -101 -120 -12 -25 -39 -74 -61 -108 -21 -34 -39 -68 -39 -76 0 -25 -54
-117 -81 -138 -45 -35 -174 -277 -339 -636 -76 -165 -112 -233 -96 -180 3 11
15 63 27 115 23 109 61 221 170 514 44 115 77 211 74 214 -4 5 -25 -42 -25
-57 0 -4 -9 -16 -20 -26 -11 -10 -20 -22 -20 -28 0 -5 -11 -22 -25 -39 -14
-16 -25 -38 -25 -47 0 -10 -8 -29 -19 -42 -10 -13 -22 -39 -26 -58 -4 -18 -16
-52 -26 -75 -10 -22 -19 -49 -19 -60 0 -10 -10 -31 -22 -47 -60 -76 -68 -88
-68 -106 0 -10 -9 -37 -21 -58 -13 -25 -24 -72 -29 -125 -8 -93 -40 -168 -78
-185 -11 -5 -24 -17 -29 -27 -8 -17 -10 -17 -40 4 -42 30 -98 136 -113 216
-20 101 -7 284 29 422 17 63 31 118 31 123 0 13 -85 7 -115 -9 -16 -8 -52 -18
-80 -21 -27 -3 -59 -12 -70 -19 -11 -8 -31 -14 -45 -14 -14 0 -34 -7 -44 -15
-11 -8 -32 -15 -47 -15 -14 0 -32 -7 -39 -15 -7 -8 -26 -15 -42 -15 -16 0 -42
-7 -58 -15 -16 -9 -51 -18 -77 -22 -27 -3 -57 -12 -68 -19 -11 -8 -33 -14 -50
-14 -16 -1 -41 -7 -55 -15 -14 -8 -41 -14 -61 -15 -20 0 -42 -7 -49 -15 -7 -8
-25 -15 -41 -15 -27 0 -95 -23 -166 -55 -17 -8 -35 -15 -40 -15 -16 -1 -61
-45 -67 -67 -4 -12 -16 -25 -27 -28 -10 -4 -19 -13 -19 -21 0 -8 -20 -35 -45
-60 -25 -24 -45 -49 -45 -54 0 -6 -11 -16 -25 -22 -14 -6 -25 -17 -25 -25 0
-8 -20 -35 -45 -61 -25 -26 -45 -52 -45 -59 0 -7 -9 -17 -20 -23 -11 -6 -20
-16 -20 -22 0 -7 -11 -28 -23 -47 -70 -105 -94 -147 -152 -264 -56 -110 -108
-251 -129 -349 -4 -19 -15 -30 -32 -34 -14 -4 -27 -4 -29 -2 -5 5 41 232 84
411 95 396 226 773 392 1129 95 205 293 583 322 616 27 29 47 28 185 -13 285
-84 686 -84 979 1 238 69 352 188 341 357 -5 84 -35 141 -118 225 -73 74 -112
97 -178 108 -45 7 -60 -9 -20 -22 29 -9 178 -160 198 -199 8 -17 22 -38 32
-48 15 -15 18 -35 18 -121 0 -100 -1 -104 -28 -132 -34 -34 -87 -74 -100 -74
-5 0 -15 -7 -22 -15 -7 -8 -22 -15 -34 -15 -12 0 -31 -7 -42 -15 -10 -8 -28
-15 -39 -15 -11 0 -33 -7 -50 -16 -16 -8 -68 -19 -115 -24 -47 -5 -107 -13
-135 -19 -66 -13 -339 -13 -390 0 -22 6 -60 15 -85 20 -25 6 -59 17 -77 25
-17 8 -40 14 -52 14 -11 0 -30 4 -43 10 -13 5 -55 19 -95 31 l-72 21 33 66
c42 83 201 270 287 338 217 172 422 255 594 239 39 -3 79 -8 90 -11 11 -2 7 2
-10 10 -16 8 -69 20 -117 27 -49 6 -88 15 -88 21 0 5 14 15 30 21 17 6 30 14
30 17 0 12 -69 43 -115 50 -27 5 -68 13 -90 19 -57 15 -163 13 -210 -4z m3635
-759 c0 -2 -9 -23 -20 -47 -14 -31 -20 -66 -20 -120 0 -67 -3 -79 -25 -103
-14 -15 -25 -38 -25 -51 0 -14 -8 -29 -20 -35 -11 -6 -20 -19 -20 -30 0 -11
-10 -28 -22 -39 -14 -14 -24 -39 -29 -77 -4 -31 -14 -63 -22 -72 -8 -10 -18
-30 -21 -47 -4 -16 -14 -37 -22 -45 -47 -49 -154 -253 -169 -320 -10 -47 -44
-109 -67 -123 -11 -7 -45 -57 -75 -112 -78 -138 -122 -203 -225 -327 -171
-206 -330 -336 -510 -417 -98 -44 -119 -47 -53 -6 149 91 339 267 437 405 127
180 267 423 293 510 6 21 2 19 -26 -14 -46 -54 -89 -118 -89 -133 0 -7 -9 -17
-20 -23 -11 -6 -20 -16 -20 -23 0 -10 -57 -78 -120 -142 -11 -12 -20 -25 -20
-29 0 -9 -15 -25 -168 -179 -167 -167 -191 -188 -292 -257 -12 -8 -32 -22 -44
-31 -54 -40 -230 -119 -264 -119 -20 -1 -48 -7 -62 -15 -51 -29 -136 -19 -309
38 -53 17 -177 80 -197 100 -2 2 45 99 106 215 99 188 118 217 173 269 245
228 960 752 1597 1170 324 213 370 241 370 229z m-5570 -1143 c36 -18 88 -60
157 -129 101 -99 103 -102 102 -145 -1 -24 -8 -56 -15 -71 -8 -15 -14 -39 -14
-54 0 -14 -11 -39 -25 -56 -14 -16 -25 -37 -25 -47 0 -10 -9 -26 -20 -36 -11
-10 -20 -25 -20 -33 0 -8 -11 -27 -25 -44 -14 -16 -25 -35 -25 -42 0 -7 -9
-21 -19 -30 -11 -10 -22 -28 -25 -41 -4 -14 -15 -29 -26 -35 -11 -6 -20 -19
-20 -29 0 -10 -7 -24 -16 -31 -8 -8 -21 -27 -28 -44 -8 -17 -32 -51 -55 -76
-23 -24 -41 -50 -41 -56 0 -7 -8 -15 -17 -18 -10 -3 -26 -18 -35 -33 -10 -16
-23 -37 -30 -48 -22 -33 -99 -127 -145 -175 -24 -24 -43 -48 -43 -52 0 -5 -11
-13 -25 -18 -14 -5 -25 -14 -25 -20 0 -5 -5 -10 -11 -10 -9 0 -146 -103 -159
-120 -3 -4 -34 -23 -69 -44 -35 -20 -90 -57 -122 -82 -33 -25 -59 -43 -59 -41
0 17 109 448 141 561 61 210 164 512 218 641 105 247 212 400 326 466 60 35
108 33 195 -8z m1920 -162 c5 -29 16 -59 24 -67 9 -8 18 -31 22 -52 4 -20 15
-43 26 -50 10 -7 18 -24 18 -37 0 -15 7 -26 20 -30 11 -3 20 -11 20 -16 0 -13
46 -56 84 -80 l29 -18 -26 -12 c-14 -6 -30 -24 -36 -39 -8 -23 -20 -31 -78
-48 -37 -11 -95 -22 -127 -25 -33 -3 -62 -10 -65 -14 -9 -12 -96 -53 -113 -53
-9 0 -29 -7 -44 -15 -16 -8 -43 -15 -61 -15 -18 0 -67 -16 -109 -35 -43 -20
-81 -34 -86 -33 -23 8 159 322 265 458 53 67 218 242 224 237 1 -2 7 -27 13
-56z m851 -302 c-6 -16 -10 -18 -10 -7 -1 22 12 55 16 42 2 -6 -1 -22 -6 -35z
m-21 -95 c0 -9 -9 -50 -19 -92 -23 -89 -47 -250 -57 -372 -8 -100 -9 -102
-148 -324 -117 -186 -121 -187 -86 -14 19 93 137 435 231 671 23 56 45 112 50
125 10 25 29 30 29 6z m-2155 -464 c-7 -85 -13 -156 -14 -157 -4 -9 -84 -53
-88 -49 -3 3 11 61 31 128 37 126 77 241 81 236 1 -2 -3 -73 -10 -158z m641
125 c18 -14 18 -16 1 -29 -10 -8 -73 -36 -140 -62 -67 -26 -167 -73 -222 -104
-130 -74 -133 -75 -141 -45 -3 13 -3 28 0 33 5 8 135 86 206 123 40 21 244 98
261 98 8 1 24 -6 35 -14z"/>
<path d="M15370 11279 c152 -66 149 -65 118 -40 -39 31 -174 91 -206 91 -18 0
12 -17 88 -51z"/>
<path d="M6845 10880 c-49 -10 -127 -38 -139 -51 -6 -5 -19 -9 -30 -9 -12 0
-34 -9 -51 -20 -16 -11 -39 -20 -50 -20 -11 0 -29 -7 -39 -15 -11 -8 -31 -15
-45 -15 -14 0 -35 -7 -45 -15 -11 -8 -32 -15 -46 -15 -14 0 -35 -7 -46 -15
-10 -8 -31 -15 -45 -15 -15 0 -32 -7 -39 -15 -7 -8 -30 -18 -51 -21 -21 -4
-44 -13 -50 -20 -6 -8 -26 -14 -44 -14 -18 0 -38 -7 -45 -15 -7 -8 -27 -15
-45 -15 -18 0 -38 -7 -45 -15 -7 -8 -21 -15 -31 -15 -11 0 -36 -9 -56 -20 -21
-11 -50 -20 -65 -20 -16 0 -28 -4 -28 -10 0 -5 -17 -12 -37 -15 -51 -9 -126
-37 -225 -84 -46 -21 -153 -70 -238 -109 -85 -38 -175 -82 -200 -96 -25 -14
-52 -29 -60 -32 -55 -24 -127 -61 -205 -104 -49 -27 -101 -54 -115 -60 -14 -5
-33 -15 -42 -20 -10 -6 -24 -10 -31 -10 -22 0 -411 -225 -563 -325 -89 -59
-158 -113 -188 -147 -25 -29 -46 -56 -46 -60 0 -5 -4 -8 -9 -8 -15 0 5 77 34
125 79 136 340 353 645 537 109 66 512 289 619 342 50 26 91 48 91 49 0 9 -66
-8 -78 -19 -7 -8 -26 -14 -41 -14 -16 0 -34 -7 -41 -15 -7 -8 -17 -15 -22 -15
-12 0 -70 -25 -120 -51 -20 -10 -43 -19 -50 -19 -11 0 -118 -48 -158 -71 -8
-5 -22 -12 -30 -16 -8 -3 -34 -14 -57 -24 -23 -11 -46 -19 -52 -19 -5 0 -11
-4 -13 -8 -1 -5 -15 -15 -30 -23 -15 -8 -64 -34 -110 -57 -45 -24 -85 -47 -88
-50 -8 -10 -68 -52 -75 -52 -4 0 -21 -11 -39 -25 -18 -13 -59 -39 -92 -56 -55
-29 -127 -81 -165 -118 -8 -9 -41 -38 -72 -65 -31 -27 -57 -55 -57 -63 0 -7
-11 -19 -25 -25 -14 -6 -25 -17 -25 -24 0 -7 -20 -32 -45 -56 -25 -24 -45 -48
-45 -55 0 -6 -8 -18 -19 -25 -12 -9 -24 -40 -35 -94 -20 -98 -20 -128 -2 -220
29 -156 143 -275 328 -343 171 -64 297 -93 503 -118 196 -24 253 -26 830 -33
670 -8 854 -19 1115 -66 309 -56 471 -114 558 -200 28 -29 52 -56 52 -61 0 -9
-39 -34 -110 -72 -40 -22 -60 -25 -175 -28 -150 -4 -183 -9 -167 -25 12 -12
148 -16 252 -8 l65 5 3 -86 c2 -80 1 -87 -23 -113 -14 -15 -25 -36 -25 -47 0
-10 -9 -27 -20 -36 -11 -10 -20 -25 -20 -33 0 -9 -11 -31 -25 -50 -14 -19 -25
-44 -25 -57 0 -13 -9 -31 -20 -40 -11 -10 -23 -32 -26 -50 -4 -19 -14 -35 -25
-38 -11 -4 -19 -16 -19 -29 0 -13 -9 -31 -20 -41 -10 -9 -24 -32 -30 -50 -6
-18 -17 -36 -25 -39 -8 -3 -15 -16 -15 -29 0 -13 -11 -33 -25 -45 -14 -12 -25
-28 -25 -37 0 -8 -9 -19 -20 -25 -11 -6 -20 -17 -20 -25 0 -8 -11 -22 -25 -31
-14 -9 -25 -25 -25 -35 0 -10 -9 -24 -20 -31 -11 -7 -20 -21 -20 -30 0 -10
-11 -25 -25 -34 -14 -9 -25 -25 -25 -35 0 -11 -11 -24 -25 -31 -14 -6 -25 -16
-25 -22 0 -6 -20 -33 -45 -61 -25 -27 -45 -55 -45 -62 0 -7 -9 -17 -20 -23
-11 -6 -20 -16 -20 -23 0 -7 -20 -30 -45 -52 -25 -22 -45 -46 -45 -53 0 -7
-10 -17 -22 -23 -13 -6 -38 -30 -57 -55 -18 -24 -37 -44 -41 -44 -4 0 -36 -28
-71 -62 -75 -73 -153 -138 -167 -138 -5 0 -12 -7 -16 -15 -3 -8 -11 -15 -18
-15 -8 0 -21 -8 -30 -17 -31 -33 -55 -53 -60 -53 -3 0 -21 -14 -39 -32 -40
-37 -179 -128 -196 -128 -6 0 -13 -3 -15 -7 -4 -11 -65 -53 -76 -53 -5 0 -15
-7 -22 -15 -7 -8 -21 -15 -32 -15 -11 0 -46 -16 -78 -35 -32 -19 -67 -35 -78
-35 -11 0 -25 -7 -32 -15 -7 -8 -20 -15 -30 -15 -10 0 -23 -7 -30 -15 -7 -8
-25 -15 -41 -15 -15 0 -34 -6 -42 -14 -8 -8 -32 -18 -53 -22 -21 -4 -48 -13
-59 -20 -11 -8 -31 -14 -45 -14 -14 -1 -36 -7 -50 -15 -14 -8 -42 -14 -63 -15
-21 0 -54 -7 -74 -15 -19 -8 -59 -15 -89 -15 -29 0 -75 -8 -101 -17 -42 -16
-85 -18 -343 -17 -209 1 -304 4 -325 13 -16 7 -79 15 -140 18 -67 4 -118 11
-130 19 -11 8 -44 14 -75 14 -30 1 -66 7 -80 15 -14 8 -42 14 -63 15 -21 0
-50 6 -65 14 -15 7 -47 17 -72 21 -25 4 -50 11 -56 16 -7 6 -36 12 -65 16 -30
3 -63 12 -74 19 -11 8 -28 14 -38 14 -10 0 -31 6 -45 14 -43 22 -102 46 -113
46 -11 0 -60 21 -204 90 -55 26 -116 53 -135 61 -19 7 -86 39 -149 72 -62 32
-115 56 -118 53 -4 -4 35 -31 237 -161 86 -55 328 -189 479 -264 439 -221 907
-364 1320 -406 272 -27 557 -16 809 30 114 22 124 28 156 95 20 42 55 86 122
151 94 93 285 235 337 250 36 10 34 3 -5 -17 -45 -22 -248 -176 -300 -227 -30
-29 -63 -83 -110 -177 -37 -74 -72 -152 -78 -172 -6 -21 -20 -44 -31 -52 -20
-13 -20 -15 10 -106 70 -212 112 -245 363 -285 140 -22 170 -20 344 25 136 35
169 40 258 39 128 -1 268 16 315 40 20 10 72 29 116 41 44 12 93 29 110 38
l30 15 -26 -34 c-31 -41 -74 -124 -83 -161 -3 -16 -11 -28 -17 -28 -5 0 -15
-14 -20 -30 -6 -17 -15 -30 -20 -30 -5 0 -44 -36 -87 -81 -68 -72 -124 -128
-173 -174 -9 -8 -20 -15 -26 -15 -6 0 -13 -9 -16 -20 -10 -40 33 -19 114 56
50 46 106 78 155 88 18 4 54 21 80 38 27 17 74 42 104 55 30 14 64 33 75 43
11 11 38 27 60 36 24 10 76 53 130 108 97 99 236 199 350 251 39 17 85 44 103
60 31 26 45 29 160 41 70 7 159 13 197 13 l70 0 -58 -30 c-32 -16 -108 -50
-170 -76 -127 -51 -191 -82 -185 -89 10 -9 239 49 386 97 100 32 167 49 190
47 l37 -3 26 -95 c15 -52 31 -108 37 -125 39 -112 48 -185 28 -223 -9 -17 -16
-53 -16 -80 0 -36 -6 -57 -25 -82 -14 -19 -25 -44 -25 -55 0 -12 -9 -30 -20
-40 -11 -10 -20 -26 -20 -35 0 -9 -11 -31 -25 -50 -14 -19 -25 -47 -25 -62 0
-15 -8 -36 -19 -47 -10 -10 -21 -34 -25 -53 -3 -20 -15 -43 -26 -53 -13 -12
-20 -31 -20 -55 0 -20 -5 -41 -12 -48 -7 -7 -10 -12 -7 -12 3 0 31 25 64 55
48 44 70 76 116 167 48 97 60 113 79 110 12 -1 34 7 48 19 l27 20 8 -23 c5
-13 13 -33 18 -45 20 -52 30 -22 59 166 12 80 74 239 189 481 85 180 88 185
117 184 51 -2 223 -52 267 -77 23 -13 88 -39 145 -57 71 -22 99 -36 90 -42
-36 -24 145 -112 316 -155 56 -14 156 -48 223 -74 67 -27 127 -49 133 -49 7 0
44 -14 83 -31 39 -17 134 -44 211 -60 77 -16 144 -34 150 -38 6 -5 40 -14 76
-21 101 -18 212 -53 375 -120 83 -33 186 -72 230 -87 44 -14 91 -36 105 -48
14 -13 44 -32 66 -43 23 -12 67 -44 97 -72 50 -46 77 -56 77 -30 0 4 -16 27
-35 50 -19 23 -38 53 -41 66 -3 13 -9 24 -13 24 -4 0 -16 7 -26 15 -64 49
-114 85 -119 85 -3 0 -24 13 -48 29 -24 16 -68 41 -98 56 -76 37 -102 52 -109
62 -8 11 -106 63 -119 63 -6 0 -23 5 -37 10 l-27 10 28 22 c16 12 52 43 79 68
35 32 63 49 90 54 93 18 357 181 452 279 82 85 216 179 315 221 39 17 70 37
73 47 7 21 26 25 170 39 61 6 159 17 218 25 134 19 122 20 135 -10 6 -14 18
-25 25 -25 7 0 27 -15 45 -33 26 -26 32 -41 32 -74 0 -24 7 -48 15 -57 26 -26
35 -65 35 -159 0 -65 5 -101 16 -122 9 -16 20 -63 24 -103 4 -42 14 -80 23
-90 9 -9 19 -41 23 -70 7 -57 19 -74 29 -43 16 51 37 245 35 324 -1 49 4 119
10 155 10 56 10 80 -4 147 -8 44 -18 107 -22 141 l-6 60 43 11 c24 6 65 19 91
29 26 10 49 16 51 14 8 -11 -9 -171 -19 -178 -53 -34 -53 -183 -1 -256 25 -35
36 -141 18 -175 -7 -11 -30 -30 -51 -41 -44 -23 -54 -44 -16 -34 14 3 83 -8
158 -26 200 -47 209 -49 297 -56 61 -5 81 -10 81 -22 0 -11 7 -12 28 -7 15 4
72 13 127 20 87 12 112 20 210 70 112 57 213 130 321 235 53 52 62 66 66 104
4 30 28 83 76 167 67 118 122 235 122 260 0 6 -9 9 -20 6 -11 -3 -20 -2 -20 2
0 4 17 55 39 114 26 73 51 122 77 153 70 82 68 78 55 142 -12 55 -10 104 15
315 8 64 -2 130 -18 125 -13 -5 -17 -11 -47 -78 -22 -48 -95 -139 -105 -130
-3 3 1 19 9 34 19 37 19 38 -7 34 -28 -4 -104 -110 -113 -158 -4 -19 -15 -40
-26 -48 -12 -8 -19 -25 -19 -46 0 -19 -9 -45 -21 -60 -12 -15 -23 -45 -26 -67
-4 -23 -13 -44 -23 -49 -10 -5 -21 -21 -24 -34 -3 -14 -15 -30 -26 -36 -11 -6
-20 -21 -20 -35 0 -15 -7 -26 -20 -30 -11 -3 -20 -14 -20 -24 0 -23 -69 -97
-103 -110 -30 -11 -141 0 -191 19 -41 15 -123 13 -129 -4 -8 -19 107 -54 206
-62 66 -6 75 -5 82 12 7 17 8 17 15 -6 14 -46 11 -173 -5 -194 -8 -11 -15 -34
-15 -51 0 -21 -9 -40 -25 -55 -14 -13 -25 -30 -25 -38 0 -8 -9 -24 -20 -36
-11 -12 -33 -35 -48 -51 -53 -59 -127 -91 -235 -102 -51 -5 -96 10 -154 53
l-32 24 4 131 c4 103 1 137 -10 159 -38 74 -3 175 67 195 53 15 60 28 11 20
-24 -4 -43 -5 -43 -2 0 2 7 23 15 46 8 23 12 47 9 55 -6 16 22 173 42 228 20
58 19 71 -6 58 -17 -9 -20 -8 -20 12 0 21 23 68 79 161 13 20 19 37 13 37 -16
0 -122 -83 -122 -96 0 -22 -64 -86 -102 -101 -40 -16 -128 -122 -128 -154 0
-10 -11 -30 -25 -45 -14 -15 -25 -37 -25 -50 0 -14 -8 -25 -20 -29 -12 -4 -20
-15 -20 -30 0 -13 -10 -29 -25 -39 -14 -9 -25 -23 -25 -31 0 -14 -62 -48 -107
-58 -12 -3 -30 1 -41 8 -10 8 -36 15 -58 17 l-39 3 -12 85 c-6 47 -12 122 -12
167 -1 60 -7 96 -23 135 -17 42 -22 77 -24 171 -2 65 -5 121 -8 126 -3 4 1 32
9 62 8 30 15 55 15 57 0 2 -10 0 -22 -3 -32 -10 -88 -65 -88 -87 0 -10 -11
-25 -25 -34 -14 -9 -25 -21 -25 -28 0 -13 -54 -66 -67 -66 -5 0 -16 -8 -24
-17 -9 -10 -33 -31 -53 -47 -20 -16 -36 -35 -36 -41 0 -7 -19 -25 -42 -41 -24
-16 -45 -31 -48 -34 -3 -3 -24 -18 -47 -34 -24 -16 -43 -33 -43 -37 0 -5 -11
-19 -25 -31 -14 -12 -25 -30 -25 -39 0 -10 -8 -24 -18 -31 -11 -7 -24 -23 -31
-36 -6 -12 -35 -40 -64 -62 -29 -22 -59 -47 -68 -55 -9 -8 -20 -15 -25 -15 -5
0 -17 -8 -25 -17 -35 -38 -109 -92 -149 -108 -8 -4 -28 -13 -45 -20 -16 -8
-55 -19 -85 -25 -30 -6 -75 -15 -100 -20 -25 -5 -68 -9 -97 -9 -30 -1 -95 -15
-155 -35 -57 -18 -118 -37 -135 -40 -18 -4 -36 -12 -39 -18 -5 -7 23 -8 92 -2
54 5 122 8 149 8 80 -2 205 -16 205 -24 0 -4 -11 -15 -25 -24 -14 -9 -25 -22
-25 -28 0 -6 -40 -51 -90 -99 -49 -48 -90 -93 -90 -99 0 -26 -110 -147 -201
-220 -64 -52 -119 -113 -119 -132 0 -20 -42 -51 -90 -67 -48 -15 -180 14 -257
57 -12 7 -32 12 -45 12 -13 0 -36 7 -51 15 -16 8 -47 20 -69 25 -27 8 -63 34
-117 86 -43 41 -83 74 -88 74 -6 0 -16 7 -23 15 -7 9 -29 15 -54 15 -22 0 -54
7 -70 15 -15 8 -49 15 -75 15 -26 0 -55 6 -66 14 -11 7 -31 17 -45 21 -31 8
-91 38 -145 70 -22 13 -50 24 -61 25 -12 0 -27 7 -34 15 -7 8 -21 15 -32 15
-11 0 -32 7 -46 15 -35 19 -109 45 -147 52 -16 3 -37 11 -45 18 -8 6 -23 15
-33 18 -26 9 -139 88 -134 93 2 3 47 11 98 19 258 38 405 80 590 167 88 42
123 64 151 97 47 55 82 129 69 144 -5 7 -10 39 -10 72 -1 103 -7 113 -102 166
-46 26 -94 48 -105 48 -12 1 -27 8 -34 16 -9 10 -32 15 -74 15 -34 1 -72 7
-86 15 -14 8 -48 14 -76 15 -28 0 -59 6 -70 15 -11 8 -41 14 -71 15 -59 0 -63
6 -34 54 10 17 22 41 26 54 6 21 4 22 -54 22 -55 0 -115 -20 -132 -43 -4 -5
-16 -14 -27 -20 -12 -7 -53 -34 -92 -62 -96 -67 -121 -83 -150 -95 -14 -5 -34
-15 -45 -22 -11 -6 -54 -15 -95 -19 -41 -4 -84 -10 -96 -14 -28 -9 -36 13 -80
203 -39 172 -69 388 -80 581 -4 74 -10 117 -15 108 -14 -24 -32 -385 -25 -508
7 -127 28 -268 51 -342 20 -67 0 -49 -26 24 -23 62 -38 83 -40 52 -3 -54 2
-281 7 -295 7 -24 17 -23 53 8 21 18 33 38 37 65 5 26 16 48 36 64 31 27 60
33 54 13 -3 -7 -7 -26 -11 -41 -3 -16 -25 -46 -48 -68 -40 -37 -41 -39 -16
-39 30 0 135 40 183 69 43 27 46 27 46 -8 0 -53 -22 -96 -110 -211 -79 -105
-144 -209 -145 -235 -1 -22 -18 -35 -46 -35 -40 0 -48 24 -55 168 -7 151 -20
235 -45 284 -12 24 -19 57 -19 86 1 26 -2 68 -5 93 -5 28 -3 54 4 67 8 15 8
27 0 46 -10 20 -8 37 6 83 10 32 22 65 28 73 6 10 4 51 -6 115 -9 55 -26 191
-38 302 l-23 202 74 151 c41 83 85 160 98 173 l23 22 -5 -90 -6 -90 19 100
c37 202 107 428 152 489 18 26 36 46 40 46 4 0 31 -30 60 -67 76 -97 254 -272
324 -318 160 -105 265 -139 414 -133 97 3 113 6 174 36 88 43 210 135 271 203
55 61 152 198 219 309 105 175 281 611 380 945 36 121 68 232 71 247 5 22 15
29 64 43 31 9 119 39 195 66 76 28 143 49 148 47 5 -2 -9 -37 -31 -78 -21 -41
-40 -84 -40 -95 0 -11 -7 -29 -15 -39 -8 -11 -15 -37 -15 -59 0 -27 -8 -48
-25 -69 -19 -22 -25 -41 -25 -77 0 -33 -6 -56 -20 -74 -13 -16 -20 -40 -20
-67 0 -30 -7 -50 -25 -72 -19 -22 -25 -41 -25 -77 0 -34 -5 -53 -19 -65 -11
-10 -21 -36 -24 -62 -2 -26 -14 -59 -26 -75 -16 -21 -21 -43 -21 -89 0 -57
-11 -97 -31 -110 -5 -3 -11 -46 -15 -95 -4 -61 -12 -98 -23 -115 -13 -18 -20
-56 -25 -141 -6 -103 -5 -118 11 -137 10 -11 108 -83 218 -159 237 -165 226
-158 219 -140 -6 16 -149 142 -249 219 -74 57 -90 90 -47 96 49 7 171 -86 348
-264 l111 -112 7 163 c4 89 14 194 23 231 8 38 19 85 23 104 7 30 8 26 9 -30
2 -79 16 -183 38 -270 16 -67 84 -235 102 -253 19 -19 19 -3 0 58 -50 157 -65
457 -34 670 9 61 36 187 61 282 25 99 43 191 43 217 -2 35 3 51 24 76 29 34
36 70 12 70 -8 0 -19 -9 -25 -20 -30 -55 -136 -358 -158 -450 -13 -58 -29
-123 -34 -144 -13 -52 -28 -30 -28 41 0 99 52 437 90 586 44 169 25 138 281
457 146 182 209 253 209 236 0 -3 -16 -38 -36 -77 -20 -41 -30 -69 -22 -67 13
4 128 165 128 180 0 10 -123 67 -163 75 -17 3 -41 12 -52 20 -11 7 -29 13 -41
13 -12 0 -27 7 -34 15 -7 8 -25 15 -39 15 -15 0 -36 7 -47 15 -10 8 -25 15
-32 15 -8 0 -46 16 -86 35 -123 59 -185 49 -297 -47 -78 -67 -136 -107 -165
-114 -16 -4 -38 -13 -49 -20 -11 -8 -27 -14 -37 -14 -9 0 -61 -25 -114 -56
-53 -30 -98 -53 -101 -50 -3 3 2 32 11 64 9 32 16 63 16 69 0 14 -61 73 -76
73 -6 0 -17 7 -24 15 -7 8 -20 15 -28 15 -20 0 -155 64 -274 129 -82 45 -137
43 -181 -8 -7 -7 -31 -34 -54 -60 -23 -25 -56 -63 -75 -83 -18 -21 -37 -38
-41 -38 -9 0 -92 -60 -118 -85 -9 -8 -21 -15 -27 -15 -7 0 -12 -4 -12 -9 0 -6
-11 -22 -25 -37 -14 -15 -25 -30 -25 -35 0 -4 -9 -10 -19 -14 -10 -3 -22 -17
-25 -30 -3 -13 -15 -29 -26 -35 -11 -6 -20 -16 -20 -22 0 -10 -64 -78 -74 -78
-2 0 -24 -19 -48 -42 -24 -24 -67 -63 -96 -88 -28 -25 -52 -50 -52 -57 0 -7
-10 -24 -22 -38 -13 -14 -34 -40 -48 -57 -46 -57 -83 -89 -130 -113 -28 -14
-93 -70 -160 -139 -62 -64 -115 -114 -118 -112 -9 9 176 337 286 506 87 134
243 346 348 472 41 49 72 93 69 98 -8 13 -133 60 -159 60 -13 0 -29 6 -35 14
-6 8 -22 16 -34 19 -40 10 -97 33 -109 45 -7 7 -19 12 -28 12 -8 0 -32 9 -53
20 -20 11 -48 20 -61 20 -14 0 -28 5 -31 10 -9 15 -68 12 -102 -5 -32 -16 -59
-40 -108 -97 -16 -19 -46 -46 -66 -61 -50 -37 -105 -110 -262 -344 -86 -127
-162 -256 -211 -354 -79 -159 -96 -168 -61 -35 12 46 114 326 160 439 14 34
-12 16 -29 -20 -24 -53 -51 -101 -70 -122 -9 -9 -19 -32 -22 -50 -4 -17 -15
-36 -25 -42 -11 -5 -19 -18 -19 -28 0 -10 -11 -29 -23 -43 -19 -20 -25 -41
-30 -97 -7 -79 -34 -137 -72 -151 -17 -6 -29 -27 -46 -77 -18 -54 -24 -63 -30
-48 -4 11 -8 38 -8 61 -2 71 -102 194 -196 238 -22 10 -53 25 -68 32 -16 8
-39 14 -52 14 -12 0 -28 7 -35 15 -7 8 -22 15 -34 15 -11 0 -34 7 -51 16 -16
8 -50 18 -75 21 -25 3 -51 10 -57 16 -7 5 -54 13 -105 17 -51 4 -106 12 -121
19 -16 6 -77 11 -136 11 -67 0 -126 6 -157 15 -27 8 -88 15 -138 15 -49 0
-115 7 -145 15 -31 8 -144 19 -251 25 -107 5 -220 14 -250 19 -30 5 -107 10
-170 10 -63 1 -147 8 -185 16 -39 8 -122 15 -185 15 -69 0 -137 6 -170 15 -30
8 -89 15 -130 15 -47 0 -86 6 -104 15 -15 8 -52 15 -80 15 -29 0 -76 7 -105
16 -44 13 -116 15 -476 12 -233 -2 -426 -6 -430 -10 -12 -11 16 -78 46 -113
44 -50 122 -96 223 -131 96 -33 96 -37 -4 -49 -68 -9 -202 -50 -252 -78 -37
-20 -38 -20 -73 -1 -20 10 -49 32 -66 48 -25 25 -29 35 -29 86 0 32 7 75 16
96 25 61 89 140 121 149 15 5 210 11 431 14 l404 6 -29 32 c-47 52 -83 105
-83 123 0 29 59 107 137 180 116 108 336 237 598 348 148 63 750 292 768 292
5 0 53 -42 106 -93 152 -146 327 -260 490 -318 178 -63 262 -79 408 -79 254 0
503 77 738 228 74 48 78 52 49 52 -18 0 -54 6 -80 14 -27 8 -89 27 -139 41
-197 59 -401 196 -527 355 -20 25 -65 97 -100 160 -70 125 -71 126 -153 110z
m2856 -1475 c-20 -70 -26 -107 -20 -122 9 -24 -2 -66 -20 -78 -6 -3 -11 -31
-11 -61 0 -41 -5 -59 -21 -75 -12 -12 -24 -42 -28 -71 -5 -28 -15 -54 -22 -59
-10 -6 -16 -38 -19 -106 -5 -84 -8 -101 -28 -121 -14 -14 -22 -34 -22 -55 0
-20 -8 -41 -19 -51 -12 -11 -20 -35 -23 -67 -3 -32 -13 -58 -27 -72 -11 -13
-21 -35 -21 -50 0 -14 -9 -34 -19 -44 -11 -10 -22 -35 -26 -56 -4 -21 -16 -42
-26 -48 -11 -5 -19 -20 -19 -34 0 -13 -11 -37 -25 -53 -14 -17 -25 -39 -25
-51 0 -11 -9 -25 -20 -31 -11 -6 -20 -20 -20 -31 0 -12 -10 -23 -25 -29 -15
-6 -25 -17 -25 -29 0 -10 -11 -26 -25 -35 -14 -9 -25 -21 -25 -28 0 -15 -48
-58 -90 -81 -24 -13 -63 -21 -122 -24 -82 -5 -91 -4 -154 26 -55 26 -87 52
-176 144 -65 67 -107 119 -106 129 3 14 208 243 813 908 88 96 218 240 289
318 71 79 130 141 132 139 2 -1 -9 -48 -25 -102z m-2030 -664 l24 -19 -60
-122 c-63 -129 -74 -140 -140 -140 l-33 0 71 150 c77 162 88 172 138 131z
m230 -58 c-18 -92 -25 -248 -12 -271 6 -12 14 -80 18 -151 6 -123 5 -129 -16
-147 -11 -10 -21 -30 -21 -44 0 -14 -11 -41 -25 -60 -14 -19 -25 -38 -25 -44
0 -5 -9 -19 -19 -30 -37 -40 -153 -288 -160 -343 -4 -29 -16 -62 -27 -74 -16
-17 -20 -42 -25 -143 -4 -80 -11 -134 -22 -158 -14 -31 -17 -73 -17 -238 0
-177 2 -207 19 -248 16 -38 21 -76 23 -194 3 -119 6 -150 20 -165 9 -10 19
-30 23 -45 l7 -27 63 49 c34 28 88 79 120 115 59 67 95 96 95 74 0 -6 -72 -81
-159 -167 -87 -87 -162 -166 -165 -177 -4 -11 -25 -31 -48 -45 -50 -30 -138
-117 -138 -136 0 -8 -11 -24 -25 -36 -14 -12 -25 -30 -25 -40 0 -10 -3 -18 -8
-18 -4 0 -43 -35 -87 -77 -81 -78 -228 -185 -275 -198 -14 -4 -34 -14 -45 -21
-11 -8 -31 -14 -45 -14 -14 0 -34 -7 -44 -15 -13 -10 -44 -15 -90 -15 -47 -1
-78 -6 -90 -15 -11 -8 -38 -15 -61 -15 -23 0 -50 -7 -61 -15 -10 -8 -29 -15
-42 -15 -12 0 -39 -9 -59 -20 -21 -11 -48 -20 -60 -20 -12 0 -24 -4 -27 -9 -9
-14 -90 -51 -113 -51 -11 0 -26 -7 -33 -15 -7 -8 -27 -15 -44 -15 -17 0 -40
-7 -50 -15 -22 -17 -108 -20 -135 -6 -26 14 -138 31 -303 45 l-146 12 -49 39
c-26 21 -54 45 -60 54 -20 23 -15 75 13 145 21 54 39 78 106 140 67 62 106 88
227 149 180 92 240 112 363 126 133 15 220 14 341 -4 125 -19 197 -20 197 -3
0 13 21 9 77 -14 63 -26 85 -17 65 27 -6 13 -9 31 -6 39 3 8 -3 19 -15 26 -12
6 -21 19 -21 29 0 24 -42 32 -175 35 -55 1 -143 8 -195 14 -87 11 -143 14
-353 14 -69 0 -76 2 -65 16 7 9 55 63 107 121 187 210 303 368 471 638 34 57
71 110 81 119 21 19 113 50 262 89 109 29 151 28 127 0 -7 -9 -10 -18 -7 -21
8 -8 171 240 276 421 96 163 263 493 312 614 19 46 35 77 37 69 2 -8 -4 -61
-13 -118 -8 -57 -13 -105 -11 -108 10 -9 25 10 31 41 3 17 10 41 15 52 5 11
32 90 61 175 45 137 157 396 166 387 2 -2 -1 -26 -6 -54z m1153 -2434 c38 -5
86 -17 105 -27 l36 -17 -30 -5 -30 -6 28 -18 c24 -16 27 -24 27 -75 0 -49 -4
-62 -29 -90 -32 -36 -91 -71 -118 -71 -10 0 -31 -7 -46 -15 -15 -8 -43 -17
-63 -21 -19 -3 -37 -10 -40 -15 -3 -5 -29 -9 -57 -9 -29 0 -74 -7 -101 -15
-27 -8 -51 -13 -53 -11 -3 2 1 14 7 27 7 12 32 74 56 137 24 64 64 146 89 183
l46 68 52 -5 c29 -3 83 -10 121 -15z m2841 -354 l-15 -54 -53 -6 c-28 -4 -76
-5 -105 -3 l-53 3 101 85 c55 47 109 96 118 110 l17 25 3 -53 c2 -29 -4 -77
-13 -107z m-4155 -125 c-6 -36 -14 -71 -19 -78 -8 -14 -217 -39 -229 -28 -4 4
15 27 43 49 27 23 86 74 130 113 l80 71 3 -31 c2 -17 -1 -60 -8 -96z m410
-254 c0 -8 -4 -18 -10 -21 -5 -3 -10 3 -10 14 0 12 5 21 10 21 6 0 10 -6 10
-14z"/>
<path d="M6606 6639 c-11 -11 -15 -19 -9 -19 12 0 38 28 32 34 -2 2 -13 -5
-23 -15z"/>
<path d="M6554 6585 c-10 -8 -14 -15 -8 -15 6 0 17 7 24 15 16 19 9 19 -16 0z"/>
<path d="M5260 10510 c0 -5 7 -7 15 -4 8 4 15 8 15 10 0 2 -7 4 -15 4 -8 0
-15 -4 -15 -10z"/>
<path d="M8145 9479 c-10 -30 0 -33 13 -4 6 14 7 25 2 25 -5 0 -12 -9 -15 -21z"/>
<path d="M13466 8198 c-8 -31 -7 -38 2 -38 5 0 9 14 10 30 1 36 -3 38 -12 8z"/>
<path d="M13206 7598 c3 -46 13 -103 21 -127 12 -34 12 -45 2 -51 -9 -6 -7
-22 11 -67 13 -32 31 -71 40 -88 10 -16 21 -41 25 -53 4 -13 16 -33 26 -43 10
-10 19 -31 19 -45 0 -15 9 -43 20 -63 10 -20 26 -52 35 -71 28 -63 48 -95 67
-108 10 -7 18 -19 18 -26 0 -7 9 -21 20 -31 11 -10 20 -24 20 -31 0 -22 116
-150 167 -185 l46 -32 18 24 c24 32 24 34 -11 59 -37 26 -119 128 -187 230
-111 167 -209 382 -302 663 -24 70 -47 127 -53 127 -6 0 -7 -30 -2 -82z"/>
<path d="M10780 7455 c0 -2 32 -40 71 -82 62 -67 164 -199 241 -311 13 -18 33
-44 46 -58 12 -14 22 -32 22 -40 0 -8 7 -17 15 -20 8 -3 19 -22 26 -42 6 -21
20 -45 30 -55 11 -10 19 -24 19 -31 0 -7 9 -24 19 -38 11 -13 23 -37 26 -51 4
-15 14 -31 23 -36 10 -6 18 -32 23 -76 5 -38 15 -75 22 -84 33 -37 28 -211 -6
-246 -10 -9 -17 -26 -17 -38 0 -32 -55 -76 -109 -89 -108 -26 -348 -6 -424 35
-26 15 -71 36 -100 48 -80 34 -211 124 -280 193 -67 67 -118 157 -138 243 -15
65 -10 81 51 178 50 79 110 238 110 291 0 24 -3 26 -31 20 -16 -3 -37 -13 -45
-21 -9 -8 -19 -15 -24 -15 -7 0 -93 -82 -117 -113 -7 -8 -18 -17 -25 -19 -21
-7 -15 -251 8 -285 9 -15 20 -57 24 -94 5 -45 15 -77 29 -95 11 -15 21 -33 21
-41 0 -27 83 -115 164 -176 94 -69 273 -158 366 -182 100 -25 299 -31 385 -11
115 27 189 87 235 188 43 94 18 279 -59 443 -43 91 -197 343 -279 455 -74 100
-195 235 -200 221 -6 -17 -25 -13 -62 14 -31 23 -60 33 -60 20z"/>
<path d="M14513 6655 c-53 -63 -97 -97 -86 -68 13 34 -118 -50 -170 -110 -28
-32 -65 -64 -83 -72 -33 -14 -127 -82 -132 -96 -2 -4 46 -10 106 -11 l109 -3
-48 -130 c-30 -81 -48 -147 -49 -175 0 -25 -7 -76 -15 -115 -8 -38 -15 -93
-15 -120 0 -60 -13 -109 -34 -131 -9 -8 -16 -32 -16 -52 0 -22 -8 -44 -20 -57
-14 -15 -22 -41 -27 -88 -5 -53 -10 -68 -24 -72 -11 -4 -19 -14 -19 -24 0 -22
-100 -100 -168 -130 -12 -6 -47 -29 -76 -50 -68 -51 -204 -121 -233 -121 -13
0 -23 -4 -23 -9 0 -5 -10 -13 -22 -17 -13 -4 -50 -26 -84 -49 -33 -23 -71 -46
-85 -50 -13 -4 -33 -14 -44 -21 -11 -8 -32 -14 -48 -14 -28 0 -115 -44 -129
-64 -18 -26 18 -24 143 8 165 42 251 73 399 143 111 52 217 90 226 80 3 -2 -3
-23 -12 -46 -12 -32 -14 -45 -5 -54 15 -15 14 -42 -4 -57 -8 -7 -15 -21 -15
-31 0 -10 -11 -30 -25 -45 -14 -15 -25 -39 -25 -54 0 -15 -9 -39 -21 -54 -15
-19 -22 -47 -26 -101 -7 -87 4 -96 39 -32 13 23 40 53 61 67 38 24 132 161
221 322 20 36 42 71 50 77 7 6 44 20 82 32 38 12 112 43 164 69 52 26 125 59
162 74 101 40 680 212 778 230 213 42 192 35 185 65 -4 20 0 32 14 45 30 28
197 96 296 121 49 13 162 50 249 84 88 33 161 59 164 57 2 -2 -2 -15 -9 -27
-7 -13 -18 -59 -26 -102 -8 -46 -22 -90 -33 -105 -12 -14 -20 -40 -20 -62 0
-22 -8 -48 -19 -62 -11 -14 -23 -49 -27 -78 -4 -32 -14 -59 -25 -69 -14 -12
-19 -29 -19 -72 0 -49 2 -57 18 -53 15 5 17 -4 17 -73 -1 -58 -5 -85 -18 -103
-13 -19 -17 -45 -17 -112 0 -49 4 -88 9 -88 11 0 325 494 368 579 18 36 44 99
58 140 13 40 42 101 64 136 44 70 161 340 209 482 31 91 62 224 62 263 0 21
-14 27 -25 10 -11 -18 -23 -10 -18 11 3 12 21 30 39 41 41 24 42 30 8 57 -37
29 -124 26 -180 -6 -24 -14 -57 -23 -81 -23 -37 0 -44 -4 -64 -37 -13 -21 -29
-51 -36 -67 -10 -21 -17 -26 -30 -21 -20 8 -171 43 -313 74 -165 35 -253 40
-795 46 -425 5 -536 9 -563 21 -19 8 -45 14 -57 14 -24 0 -35 30 -35 97 0 41
-25 93 -45 93 -7 0 -35 -25 -62 -55z m444 -381 c86 -30 113 -35 156 -30 29 3
158 11 287 17 363 17 523 15 565 -8 52 -29 102 -116 89 -156 -7 -25 -43 -67
-57 -67 -5 0 -46 -22 -91 -49 -44 -27 -106 -56 -136 -66 -30 -10 -98 -37 -151
-61 -53 -24 -111 -46 -130 -49 l-34 -6 28 16 c15 8 27 20 27 26 0 20 -129 -21
-335 -106 -82 -34 -206 -83 -275 -109 -69 -26 -137 -54 -152 -62 -14 -8 -35
-14 -46 -14 -12 0 -23 -4 -26 -9 -7 -11 -88 -51 -103 -51 -6 0 -31 -9 -57 -21
-31 -13 -73 -21 -125 -23 -42 -2 -94 -9 -115 -16 -20 -6 -40 -10 -43 -6 -8 8
55 137 79 164 12 12 27 22 35 22 25 0 44 49 84 226 23 98 52 199 65 224 12 25
50 76 83 114 34 38 61 74 61 80 1 37 46 53 154 55 44 1 86 -8 163 -35z"/>
<path d="M15793 6234 c15 -8 27 -18 27 -22 0 -4 17 -26 39 -50 26 -28 47 -42
64 -42 44 0 40 18 -14 75 -49 51 -55 55 -98 55 l-46 -1 28 -15z"/>
<path d="M17370 6612 c0 -11 149 -150 177 -165 8 -5 19 -5 24 0 5 5 -12 27
-43 54 -75 65 -158 123 -158 111z"/>
<path d="M17598 6315 c-2 -3 -93 -10 -202 -15 -186 -10 -199 -12 -238 -36 -23
-15 -55 -33 -72 -40 -46 -21 -64 -34 -120 -87 -28 -27 -70 -63 -93 -80 -29
-23 -50 -52 -72 -100 -17 -37 -31 -71 -31 -76 0 -4 -8 -19 -18 -32 -11 -13
-22 -35 -25 -49 -7 -30 -29 -59 -83 -114 -45 -46 -85 -117 -104 -184 -12 -47
0 -107 25 -127 7 -6 20 -27 28 -47 20 -49 80 -106 152 -147 l59 -33 75 27 c61
22 103 28 216 35 149 9 312 33 378 56 21 8 62 30 89 51 28 20 78 50 111 67 43
22 70 44 90 73 15 23 55 64 90 91 65 52 133 127 166 183 11 19 30 71 42 117
19 71 29 89 67 126 l45 44 -22 46 c-44 89 -192 208 -300 240 -51 15 -240 23
-253 11z m67 -237 c68 -45 77 -66 72 -165 -3 -68 -7 -87 -25 -106 -12 -13 -22
-30 -22 -39 0 -8 -10 -23 -21 -34 -12 -10 -24 -26 -28 -34 -3 -9 -35 -43 -71
-75 -58 -54 -65 -58 -68 -38 -3 22 -4 22 -40 5 -20 -9 -71 -42 -112 -73 -119
-88 -145 -99 -253 -99 -101 0 -145 15 -180 61 -17 24 -17 27 3 91 18 58 138
276 177 320 19 22 200 129 273 162 54 24 171 54 220 55 14 1 48 -14 75 -31z"/>
<path d="M14100 6134 c-25 -14 -48 -32 -53 -39 -4 -8 -14 -12 -22 -9 -23 9
-67 -88 -63 -139 3 -41 4 -42 38 -39 36 3 118 45 125 65 5 14 24 181 21 184
-1 1 -22 -9 -46 -23z"/>
<path d="M8167 5840 c3 -11 9 -17 14 -15 10 7 1 35 -11 35 -5 0 -6 -9 -3 -20z"/>
<path d="M19743 5553 c15 -2 39 -2 55 0 15 2 2 4 -28 4 -30 0 -43 -2 -27 -4z"/>
<path d="M4760 5461 c-25 -9 -51 -22 -58 -28 -7 -7 -23 -13 -35 -13 -12 0 -31
-7 -41 -15 -11 -8 -39 -15 -63 -15 -24 0 -58 -6 -76 -14 -18 -7 -55 -16 -82
-20 -28 -5 -55 -12 -62 -18 -7 -5 -63 -14 -125 -19 -62 -4 -133 -13 -158 -18
-25 -6 -135 -11 -245 -12 l-200 -2 95 -14 c71 -10 165 -13 370 -10 l275 4 185
42 c102 23 205 48 230 56 25 7 64 19 88 25 37 10 42 14 42 40 0 51 -53 63
-140 31z"/>
<path d="M8730 5202 c0 -34 388 -322 545 -404 166 -86 428 -150 625 -152 101
-1 122 2 168 23 28 13 52 29 52 36 0 37 -235 54 -298 21 -39 -20 -122 -21
-169 -1 -19 8 -44 15 -54 15 -21 0 -35 6 -244 111 -88 43 -198 107 -244 140
-46 33 -105 71 -130 84 -25 13 -70 44 -99 69 -58 49 -152 86 -152 58z"/>
</g>
</svg>
