<?xml version="1.0" standalone="no"?>
<!DOCTYPE svg PUBLIC "-//W3C//DTD SVG 20010904//EN"
 "http://www.w3.org/TR/2001/REC-SVG-20010904/DTD/svg10.dtd">
<svg version="1.0" xmlns="http://www.w3.org/2000/svg"
 width="512.000000pt" height="512.000000pt" viewBox="0 0 512.000000 512.000000"
 preserveAspectRatio="xMidYMid meet">

<g transform="translate(0.000000,512.000000) scale(0.100000,-0.100000)"
fill="#000000" stroke="none">
<path d="M1920 4468 c-52 -15 -84 -40 -225 -179 l-130 -128 -175 -3 c-147 -3
-181 -6 -210 -22 -49 -26 -88 -64 -113 -111 -21 -38 -22 -52 -22 -345 0 -293
1 -307 22 -345 25 -47 64 -85 113 -111 29 -16 63 -19 210 -22 l175 -4 140
-137 c77 -75 156 -145 176 -154 110 -51 216 -19 260 77 17 39 19 80 19 696 0
614 -2 657 -19 695 -39 86 -123 121 -221 93z m80 -788 l0 -640 -23 0 c-15 0
-66 44 -167 146 -80 80 -157 152 -172 160 -21 11 -70 14 -208 14 -179 0 -181
0 -205 25 l-25 24 0 271 0 271 25 24 c24 25 26 25 205 25 138 0 187 3 208 14
15 8 92 80 172 160 101 102 152 146 167 146 l23 0 0 -640z"/>
<path d="M2443 3988 c-28 -13 -47 -60 -37 -90 4 -13 41 -58 82 -100 l75 -78
-75 -77 c-41 -43 -78 -88 -82 -101 -17 -54 42 -113 96 -96 13 4 58 41 101 82
l77 75 78 -75 c42 -41 87 -78 100 -82 33 -11 78 11 92 44 18 42 5 67 -78 153
l-75 77 75 78 c83 85 96 110 78 152 -14 33 -59 55 -92 44 -13 -4 -58 -41 -101
-82 l-78 -76 -72 71 c-95 94 -116 104 -164 81z"/>
<path d="M105 3015 l-25 -24 0 -301 c0 -242 3 -306 14 -328 8 -15 396 -408
863 -875 l848 -847 1582 0 c1138 0 1589 3 1606 11 44 20 47 42 47 362 l0 302
-847 848 c-467 467 -860 855 -875 863 -35 18 -592 21 -632 3 -55 -26 -55 -112
0 -138 17 -7 115 -11 292 -11 l267 0 760 -760 760 -760 -1445 0 -1445 0 -760
760 -760 760 267 0 c177 0 275 4 292 11 55 26 55 112 0 138 -17 7 -144 11
-405 11 l-380 0 -24 -25z m1655 -1935 l0 -165 -760 760 -760 760 0 165 0 165
760 -760 760 -760 0 -165z m3120 -80 l0 -200 -1480 0 -1480 0 0 200 0 200
1480 0 1480 0 0 -200z"/>
<path d="M1083 2708 c-55 -27 -50 -114 8 -138 89 -37 151 99 63 139 -30 13
-42 13 -71 -1z"/>
<path d="M1563 2708 c-55 -27 -50 -114 8 -138 89 -37 151 99 63 139 -30 13
-42 13 -71 -1z"/>
<path d="M2043 2708 c-55 -27 -50 -114 8 -138 89 -37 151 99 63 139 -30 13
-42 13 -71 -1z"/>
<path d="M2523 2708 c-55 -27 -50 -114 8 -138 89 -37 151 99 63 139 -30 13
-42 13 -71 -1z"/>
<path d="M3003 2708 c-55 -27 -50 -114 8 -138 89 -37 151 99 63 139 -30 13
-42 13 -71 -1z"/>
<path d="M1403 2388 c-55 -27 -50 -114 8 -138 89 -37 151 99 63 139 -30 13
-42 13 -71 -1z"/>
<path d="M1883 2388 c-55 -27 -50 -114 8 -138 89 -37 151 99 63 139 -30 13
-42 13 -71 -1z"/>
<path d="M2363 2388 c-55 -27 -50 -114 8 -138 89 -37 151 99 63 139 -30 13
-42 13 -71 -1z"/>
<path d="M2843 2388 c-55 -27 -50 -114 8 -138 89 -37 151 99 63 139 -30 13
-42 13 -71 -1z"/>
<path d="M3323 2388 c-55 -27 -50 -114 8 -138 89 -37 151 99 63 139 -30 13
-42 13 -71 -1z"/>
<path d="M1723 2068 c-55 -27 -50 -114 8 -138 89 -37 151 99 63 139 -30 13
-42 13 -71 -1z"/>
<path d="M2203 2068 c-55 -27 -50 -114 8 -138 89 -37 151 99 63 139 -30 13
-42 13 -71 -1z"/>
<path d="M2683 2068 c-55 -27 -50 -114 8 -138 89 -37 151 99 63 139 -30 13
-42 13 -71 -1z"/>
<path d="M3163 2068 c-55 -27 -50 -114 8 -138 89 -37 151 99 63 139 -30 13
-42 13 -71 -1z"/>
<path d="M3643 2068 c-55 -27 -50 -114 8 -138 89 -37 151 99 63 139 -30 13
-42 13 -71 -1z"/>
<path d="M2043 1748 c-55 -27 -50 -114 8 -138 89 -37 151 99 63 139 -30 13
-42 13 -71 -1z"/>
<path d="M2523 1748 c-55 -27 -50 -114 8 -138 89 -37 151 99 63 139 -30 13
-42 13 -71 -1z"/>
<path d="M3003 1748 c-55 -27 -50 -114 8 -138 89 -37 151 99 63 139 -30 13
-42 13 -71 -1z"/>
<path d="M3483 1748 c-55 -27 -50 -114 8 -138 89 -37 151 99 63 139 -30 13
-42 13 -71 -1z"/>
<path d="M3963 1748 c-55 -27 -50 -114 8 -138 89 -37 151 99 63 139 -30 13
-42 13 -71 -1z"/>
</g>
</svg>
