<?xml version="1.0" standalone="no"?>
<!DOCTYPE svg PUBLIC "-//W3C//DTD SVG 20010904//EN"
 "http://www.w3.org/TR/2001/REC-SVG-20010904/DTD/svg10.dtd">
<svg version="1.0" xmlns="http://www.w3.org/2000/svg"
 width="512.000000pt" height="512.000000pt" viewBox="0 0 512.000000 512.000000"
 preserveAspectRatio="xMidYMid meet">

<g transform="translate(0.000000,512.000000) scale(0.100000,-0.100000)"
fill="#000000" stroke="none">
<path d="M4525 4811 c-43 -19 -109 -85 -120 -120 l-6 -21 -957 0 c-552 0
-1013 -4 -1090 -10 -395 -30 -755 -165 -1060 -397 l-82 -63 -200 177 c-240
214 -293 246 -402 247 -45 0 -94 -7 -126 -18 -66 -22 -154 -101 -190 -170 -24
-46 -27 -62 -27 -151 0 -89 3 -106 27 -151 34 -65 45 -76 280 -283 l197 -173
-44 -81 c-61 -116 -129 -292 -164 -430 -60 -232 -61 -247 -61 -1385 l-1 -1037
-52 -30 c-35 -20 -61 -46 -82 -79 -26 -43 -30 -59 -30 -120 1 -79 15 -114 66
-164 71 -69 49 -67 604 -67 493 0 501 0 540 22 84 45 128 117 129 208 1 95
-59 187 -140 217 l-34 12 0 96 0 97 117 -58 c64 -32 174 -77 245 -100 l128
-43 0 -82 c0 -70 4 -89 28 -135 23 -43 38 -59 82 -82 l54 -28 352 3 352 3 44
30 c68 49 88 93 88 200 l0 90 123 39 c69 23 190 74 280 119 l158 79 62 -60
c81 -77 130 -93 212 -71 33 9 83 53 284 252 156 155 250 256 262 282 23 49 24
125 3 168 -9 18 -43 60 -77 94 l-61 62 56 118 c31 65 67 148 80 186 l23 67
108 0 c86 0 115 4 145 19 45 23 87 66 101 104 7 18 11 155 11 378 0 376 0 379
-54 437 -37 42 -77 56 -171 62 -80 4 -90 7 -93 25 -18 112 -114 377 -183 503
l-40 72 86 0 85 0 15 -37 c77 -185 334 -191 426 -11 18 35 19 65 19 535 0 551
1 540 -66 607 -64 64 -177 85 -259 47z m182 -82 c17 -11 41 -39 52 -63 20 -41
21 -57 21 -507 0 -462 0 -465 -22 -509 -25 -49 -89 -90 -139 -90 -47 0 -111
42 -136 90 l-23 43 0 465 c0 449 1 467 20 508 43 88 142 115 227 63z m-1017
-564 l0 -425 -657 0 c-603 0 -665 -2 -748 -19 -195 -40 -362 -129 -508 -270
-143 -137 -231 -286 -285 -481 -24 -87 -27 -110 -26 -265 1 -140 4 -183 22
-247 84 -305 279 -543 557 -678 546 -266 1208 1 1416 571 48 132 61 210 62
359 0 105 -5 155 -21 223 -75 305 -257 543 -528 689 l-89 48 623 0 622 0 21
-32 c73 -118 163 -342 205 -513 249 -1023 -381 -2065 -1401 -2316 -361 -89
-720 -75 -1070 42 -680 226 -1179 821 -1291 1537 -22 143 -22 420 0 562 125
801 731 1441 1512 1599 172 35 248 38 927 40 l657 1 0 -425z m695 0 l0 -420
-307 -3 -308 -2 0 425 0 425 308 -2 307 -3 0 -420z m-3703 369 c181 -61 237
-294 105 -432 -54 -57 -102 -77 -187 -77 -65 0 -82 4 -129 30 -65 36 -106 88
-128 164 -57 197 142 383 339 315z m386 -313 l82 -73 -102 -107 c-57 -59 -132
-148 -168 -199 -36 -50 -67 -91 -70 -91 -3 -1 -54 41 -113 93 l-106 94 60 11
c158 28 274 155 287 317 6 75 -10 80 130 -45z m1537 -562 c545 -67 924 -574
830 -1112 -32 -186 -119 -358 -249 -495 -350 -368 -910 -401 -1307 -76 -371
303 -452 857 -185 1259 156 234 404 388 681 425 89 11 130 11 230 -1z m2035
-694 c47 -42 50 -64 50 -401 0 -268 -2 -321 -16 -349 -25 -54 -57 -69 -161
-73 -51 -3 -93 -2 -93 1 0 3 9 43 20 89 25 107 50 319 50 429 0 88 -16 279
-26 313 -6 17 0 18 74 15 62 -3 85 -8 102 -24z m-3968 -1110 c45 -102 125
-240 208 -358 84 -119 316 -351 443 -442 l97 -70 0 -117 0 -118 -425 0 -425 0
0 683 1 682 33 -90 c18 -49 49 -126 68 -170z m3637 -363 c18 -62 2 -84 -231
-320 -122 -125 -233 -235 -247 -244 -54 -37 -128 -14 -198 63 l-22 25 92 69
c160 121 385 365 473 514 l18 31 53 -52 c30 -30 57 -67 62 -86z m-2094 -797
c143 -21 405 -21 550 -1 60 9 117 19 127 21 14 5 17 -4 20 -55 4 -77 -5 -110
-38 -141 l-26 -24 -344 -3 c-295 -2 -348 -1 -374 13 -43 22 -60 62 -60 145 0
63 2 71 18 66 9 -3 67 -12 127 -21z m-699 -41 c51 -25 88 -92 81 -151 -5 -51
-29 -88 -77 -121 l-33 -22 -479 0 c-422 0 -484 2 -514 16 -51 24 -77 68 -82
133 -4 66 18 109 70 141 32 19 52 20 516 20 427 0 488 -2 518 -16z"/>
<path d="M3777 3477 c-171 -55 -204 -286 -55 -384 59 -40 155 -44 218 -11 69
37 104 94 108 177 3 53 0 76 -16 107 -48 94 -159 142 -255 111z m123 -82 c90
-46 104 -171 27 -229 -46 -34 -86 -40 -136 -20 -49 19 -78 57 -86 110 -15 103
102 187 195 139z"/>
<path d="M533 4420 c-55 -25 -83 -70 -83 -135 0 -67 28 -111 86 -136 149 -66
280 114 173 236 -28 31 -80 55 -119 55 -8 0 -34 -9 -57 -20z m114 -82 c48 -45
16 -128 -49 -128 -36 0 -78 40 -78 75 0 34 42 75 76 75 15 0 38 -10 51 -22z"/>
<path d="M2334 3435 c-187 -41 -364 -165 -470 -330 -141 -221 -152 -515 -27
-745 186 -344 606 -488 960 -330 380 171 546 631 362 1005 -125 254 -387 417
-668 414 -53 0 -124 -7 -157 -14z m116 -225 l0 -159 -42 -11 c-24 -7 -63 -23
-87 -37 l-43 -25 -114 113 c-62 62 -110 117 -107 122 3 5 35 28 72 51 97 63
207 102 289 105 l32 1 0 -160z m220 139 c86 -23 174 -68 225 -113 l36 -31
-114 -113 -113 -113 -45 25 c-24 13 -63 29 -86 36 l-43 11 0 159 0 160 33 0
c18 0 66 -9 107 -21z m-476 -477 c-14 -28 -29 -66 -33 -84 l-7 -33 -162 -3
-162 -2 0 28 c0 77 65 243 130 331 l32 44 115 -115 114 -114 -27 -52z m835
231 c61 -83 104 -192 125 -320 l6 -33 -164 0 -164 0 -11 48 c-7 26 -24 64 -38
86 l-25 39 113 113 c63 63 116 114 119 114 3 -1 20 -21 39 -47z m-579 -215 l0
-82 -55 54 c-30 30 -55 57 -55 61 0 6 88 48 103 49 4 0 7 -37 7 -82z m148 62
c23 -10 42 -23 42 -27 0 -5 -25 -33 -55 -63 l-55 -54 0 82 c0 92 1 93 68 62z
m-258 -145 l54 -55 -82 0 c-45 0 -82 3 -82 6 0 13 43 104 49 104 4 0 31 -25
61 -55z m390 13 c31 -67 30 -68 -62 -68 l-82 0 54 55 c30 30 58 55 63 55 4 0
17 -19 27 -42z m-566 -199 c7 -25 22 -63 35 -84 l22 -38 -113 -114 -113 -114
-28 33 c-61 72 -122 215 -133 314 l-7 55 163 -3 163 -3 11 -46z m176 -4 c-30
-30 -58 -55 -63 -55 -8 0 -27 41 -41 88 -7 22 -6 22 75 22 l83 0 -54 -55z
m410 40 c0 -20 -38 -95 -48 -95 -4 0 -32 25 -62 55 l-54 55 82 0 c67 0 82 -3
82 -15z m407 -2 c-3 -10 -8 -40 -12 -68 -4 -27 -18 -79 -32 -115 -25 -63 -108
-200 -121 -200 -4 0 -57 50 -118 111 l-112 111 29 54 c15 30 31 70 35 89 l6
35 165 0 c152 0 164 -1 160 -17z m-711 -201 c-7 -7 -94 27 -102 40 -4 5 18 34
47 64 l54 55 3 -77 c2 -42 1 -79 -2 -82z m186 33 c-18 -12 -79 -35 -93 -35 -5
0 -9 37 -9 82 l0 82 60 -59 c53 -52 57 -60 42 -70z m-311 -69 c24 -13 63 -29
87 -36 l42 -11 0 -163 0 -163 -57 9 c-112 17 -237 71 -313 135 l-32 26 114
114 c62 62 113 113 114 113 1 0 21 -11 45 -24z m584 -231 c-74 -60 -214 -120
-316 -134 l-59 -8 0 163 0 162 48 12 c27 6 66 22 88 35 l39 24 115 -115 115
-114 -30 -25z"/>
</g>
</svg>
