<?xml version="1.0" standalone="no"?>
<!DOCTYPE svg PUBLIC "-//W3C//DTD SVG 20010904//EN"
 "http://www.w3.org/TR/2001/REC-SVG-20010904/DTD/svg10.dtd">
<svg version="1.0" xmlns="http://www.w3.org/2000/svg"
 width="512.000000pt" height="512.000000pt" viewBox="0 0 512.000000 512.000000"
 preserveAspectRatio="xMidYMid meet">

<g transform="translate(0.000000,512.000000) scale(0.100000,-0.100000)"
fill="#000000" stroke="none">
<path d="M265 4295 l-25 -24 0 -1671 0 -1671 25 -24 c32 -33 78 -33 110 0 l25
24 0 715 0 715 433 3 c404 4 437 5 508 25 181 51 341 144 469 273 211 213 313
489 288 776 -32 363 -293 696 -646 824 -153 55 -208 60 -709 60 l-454 0 -24
-25z m1055 -159 c146 -41 264 -109 373 -215 251 -242 319 -592 176 -899 -117
-252 -340 -432 -601 -486 -63 -13 -151 -16 -473 -16 l-395 0 0 821 0 820 428
-3 c374 -4 435 -6 492 -22z"/>
<path d="M2464 3539 c-17 -19 -19 -39 -19 -223 0 -224 -13 -299 -80 -458 -100
-237 -313 -456 -541 -559 -38 -17 -79 -40 -91 -52 -50 -45 -11 -131 58 -129
17 0 69 19 114 41 285 136 520 393 626 682 52 143 70 233 76 389 7 172 -6 272
-38 306 -29 31 -79 32 -105 3z"/>
<path d="M2923 3550 c-42 -17 -47 -42 -32 -192 30 -322 -42 -647 -203 -918
-158 -264 -404 -488 -668 -607 -114 -51 -118 -54 -130 -84 -14 -33 -6 -62 23
-89 29 -28 54 -25 145 15 500 220 853 662 969 1214 23 109 26 151 27 311 0
221 -12 305 -49 338 -28 23 -46 26 -82 12z"/>
<path d="M3368 3544 c-38 -20 -43 -49 -27 -162 18 -130 16 -400 -5 -532 -86
-555 -392 -1035 -856 -1344 -78 -52 -254 -145 -356 -189 -67 -28 -81 -91 -31
-137 28 -27 52 -25 138 10 243 100 488 269 685 471 349 359 554 816 595 1324
11 141 8 250 -13 425 -10 82 -15 98 -39 122 -31 31 -51 34 -91 12z"/>
<path d="M4126 3539 c-22 -18 -75 -168 -381 -1092 -195 -590 -355 -1082 -355
-1095 0 -13 11 -34 25 -47 l24 -25 736 0 736 0 24 25 c14 13 25 34 25 47 0 13
-160 504 -356 1093 -374 1125 -370 1115 -428 1115 -13 0 -35 -9 -50 -21z m51
-2097 c-325 -1 -592 -1 -593 1 -2 2 130 403 293 893 l296 889 297 -890 297
-890 -590 -3z"/>
<path d="M3415 1055 c-16 -15 -25 -36 -25 -55 0 -19 9 -40 25 -55 l24 -25 736
0 736 0 24 25 c33 32 33 78 0 110 l-24 25 -736 0 -736 0 -24 -25z"/>
</g>
</svg>
