<svg id="svg" fill="#ffffff" stroke="#ffffff" width="30" height="30" version="1.1" viewBox="144 144 512 512" xmlns="http://www.w3.org/2000/svg">
    <g id="IconSvg_bgCarrier" stroke-width="0"></g>
    <g id="IconSvg_tracerCarrier" stroke-linecap="round" stroke-linejoin="round" stroke="#CCCCCC" stroke-width="0">
      <g xmlns="http://www.w3.org/2000/svg">
  <path d="m289.79 636.16h220.42c17.398 0 31.488-14.09 31.488-31.488v-409.35c0-17.367-14.121-31.488-31.488-31.488h-220.42c-17.367 0-31.488 14.121-31.488 31.488v409.34c0 17.398 14.094 31.492 31.488 31.492zm141.7-47.234h-70.848c-4.3281 0-7.8711-3.543-7.8711-7.8711 0-4.3281 3.543-7.8711 7.8711-7.8711h70.848c4.3281 0 7.8711 3.543 7.8711 7.8711 0 4.3281-3.543 7.8711-7.8711 7.8711zm-157.44-354.24h251.91v291.27l-251.91-0.003906z"></path>
  <path d="m447.23 332.01c0 4.3438 3.5195 7.8711 7.8711 7.8711 4.3516 0 7.8711-3.5273 7.8711-7.8711 0-20.027-14.273-37.352-34.945-45.754l0.003906-12.207c0-4.3438-3.5195-7.8711-7.8711-7.8711-4.3516 0-7.8711 3.5273-7.8711 7.8711v7.7852c-3.9766-0.64453-8.0781-0.99219-12.289-0.99219-3.8711 0-7.6523 0.33203-11.328 0.875v-7.668c0-4.3438-3.5195-7.8711-7.8711-7.8711-4.3516 0-7.8711 3.5273-7.8711 7.8711v11.84c-21.203 8.2422-35.906 25.789-35.906 46.121 0 20.332 14.703 37.879 35.906 46.121v69.445c-12.172-6.4062-20.164-16.992-20.164-28.973 0-4.3438-3.5195-7.8711-7.8711-7.8711-4.3516 0-7.8711 3.5273-7.8711 7.8711 0 20.332 14.703 37.879 35.906 46.121l-0.003907 13.996c0 4.3438 3.5195 7.8711 7.8711 7.8711s7.8711-3.5273 7.8711-7.8711v-9.8242c3.6836 0.55078 7.4531 0.875 11.328 0.875 4.2031 0 8.3125-0.34766 12.289-0.99219v9.9414c0 4.3438 3.5195 7.8711 7.8711 7.8711s7.8711-3.5273 7.8711-7.8711v-14.367c20.684-8.3984 34.949-25.727 34.949-45.75 0-20.027-14.273-37.352-34.945-45.754v-69.281c11.617 6.4531 19.199 16.781 19.199 28.441zm-74.305 28.984c-12.168-6.4141-20.16-17.004-20.16-28.984 0-11.98 7.9883-22.57 20.16-28.984zm39.359 91.781c-3.9219 0.79687-8.0312 1.2578-12.289 1.2578-3.9141 0-7.6992-0.40234-11.328-1.0703v-70.652c3.6836 0.55078 7.4531 0.875 11.328 0.875 4.2578 0 8.3672 0.46484 12.289 1.2578zm0-84.352c-3.9766-0.64453-8.0781-0.99219-12.289-0.99219-3.9141 0-7.6992-0.40234-11.328-1.0703l0.003906-68.695c3.6367-0.66797 7.4141-1.0703 11.328-1.0703 4.2578 0 8.3672 0.46484 12.289 1.2578zm34.945 50.18c0 11.66-7.582 21.988-19.199 28.449v-56.891c11.617 6.4531 19.199 16.781 19.199 28.441z"></path>
 </g>

      </g>
     <g id="IconSvg_iconCarrier">
      <g xmlns="http://www.w3.org/2000/svg">
  <path d="m289.79 636.16h220.42c17.398 0 31.488-14.09 31.488-31.488v-409.35c0-17.367-14.121-31.488-31.488-31.488h-220.42c-17.367 0-31.488 14.121-31.488 31.488v409.34c0 17.398 14.094 31.492 31.488 31.492zm141.7-47.234h-70.848c-4.3281 0-7.8711-3.543-7.8711-7.8711 0-4.3281 3.543-7.8711 7.8711-7.8711h70.848c4.3281 0 7.8711 3.543 7.8711 7.8711 0 4.3281-3.543 7.8711-7.8711 7.8711zm-157.44-354.24h251.91v291.27l-251.91-0.003906z"></path>
  <path d="m447.23 332.01c0 4.3438 3.5195 7.8711 7.8711 7.8711 4.3516 0 7.8711-3.5273 7.8711-7.8711 0-20.027-14.273-37.352-34.945-45.754l0.003906-12.207c0-4.3438-3.5195-7.8711-7.8711-7.8711-4.3516 0-7.8711 3.5273-7.8711 7.8711v7.7852c-3.9766-0.64453-8.0781-0.99219-12.289-0.99219-3.8711 0-7.6523 0.33203-11.328 0.875v-7.668c0-4.3438-3.5195-7.8711-7.8711-7.8711-4.3516 0-7.8711 3.5273-7.8711 7.8711v11.84c-21.203 8.2422-35.906 25.789-35.906 46.121 0 20.332 14.703 37.879 35.906 46.121v69.445c-12.172-6.4062-20.164-16.992-20.164-28.973 0-4.3438-3.5195-7.8711-7.8711-7.8711-4.3516 0-7.8711 3.5273-7.8711 7.8711 0 20.332 14.703 37.879 35.906 46.121l-0.003907 13.996c0 4.3438 3.5195 7.8711 7.8711 7.8711s7.8711-3.5273 7.8711-7.8711v-9.8242c3.6836 0.55078 7.4531 0.875 11.328 0.875 4.2031 0 8.3125-0.34766 12.289-0.99219v9.9414c0 4.3438 3.5195 7.8711 7.8711 7.8711s7.8711-3.5273 7.8711-7.8711v-14.367c20.684-8.3984 34.949-25.727 34.949-45.75 0-20.027-14.273-37.352-34.945-45.754v-69.281c11.617 6.4531 19.199 16.781 19.199 28.441zm-74.305 28.984c-12.168-6.4141-20.16-17.004-20.16-28.984 0-11.98 7.9883-22.57 20.16-28.984zm39.359 91.781c-3.9219 0.79687-8.0312 1.2578-12.289 1.2578-3.9141 0-7.6992-0.40234-11.328-1.0703v-70.652c3.6836 0.55078 7.4531 0.875 11.328 0.875 4.2578 0 8.3672 0.46484 12.289 1.2578zm0-84.352c-3.9766-0.64453-8.0781-0.99219-12.289-0.99219-3.9141 0-7.6992-0.40234-11.328-1.0703l0.003906-68.695c3.6367-0.66797 7.4141-1.0703 11.328-1.0703 4.2578 0 8.3672 0.46484 12.289 1.2578zm34.945 50.18c0 11.66-7.582 21.988-19.199 28.449v-56.891c11.617 6.4531 19.199 16.781 19.199 28.441z"></path>
 </g>

      </g>
      </svg>