<svg width="36.000000" height="23.624512" viewBox="0 0 36 23.6245" fill="none" xmlns="http://www.w3.org/2000/svg" xmlns:xlink="http://www.w3.org/1999/xlink">
	<defs/>
	<path id="Vector" d="M35.99 3.75C35.99 1.68 34.18 0 31.94 0L4.05 0C1.81 0 0 1.68 0 3.75L0 19.87C0 21.94 1.81 23.62 4.05 23.62L31.94 23.62C34.18 23.62 36 21.94 36 19.87L36 3.75L35.99 3.75ZM4.05 2.27L31.94 2.27C32.82 2.27 33.54 2.93 33.54 3.75L33.54 5.82L2.45 5.82L2.45 3.75C2.45 2.93 3.17 2.27 4.05 2.27ZM33.54 11.64L2.45 11.64L2.45 8.09L33.54 8.09L33.54 11.64ZM31.94 21.34L4.05 21.34C3.17 21.34 2.45 20.68 2.45 19.87L2.45 13.92L33.54 13.92L33.54 19.87C33.54 20.68 32.82 21.34 31.94 21.34Z" fill="#F6A700" fill-opacity="1.000000" fill-rule="nonzero"/>
	<path id="Vector" d="M13.8 17.46L5.42 17.46C4.74 17.46 4.19 17.97 4.19 18.6C4.19 19.23 4.74 19.74 5.42 19.74L13.8 19.74C14.48 19.74 15.03 19.23 15.03 18.6C15.03 17.97 14.48 17.46 13.8 17.46Z" fill="#F6A700" fill-opacity="1.000000" fill-rule="nonzero"/>
	<path id="Vector" d="M20.09 17.46L18 17.46C17.32 17.46 16.77 17.97 16.77 18.6C16.77 19.23 17.32 19.74 18 19.74L20.09 19.74C20.77 19.74 21.32 19.23 21.32 18.6C21.32 17.97 20.77 17.46 20.09 17.46Z" fill="#F6A700" fill-opacity="1.000000" fill-rule="nonzero"/>
</svg>
