<svg width="36.028748" height="33.328735" viewBox="0 0 36.0287 33.3287" fill="none" xmlns="http://www.w3.org/2000/svg" xmlns:xlink="http://www.w3.org/1999/xlink">

	<defs/>
	<path id="Vector" d="M30.38 23.56L25.99 22.59L21.11 18.07L24.87 14.59C25.75 14.87 26.66 15.01 27.56 15.01C29.68 15.01 31.77 14.25 33.32 12.82C35.73 10.59 36.38 7.18 34.94 4.33L34.28 3.01L30.32 6.67L28.48 4.97L32.44 1.31L31 0.69C27.92 -0.63 24.23 -0.03 21.83 2.19C19.61 4.24 18.88 7.3 19.91 10L18.43 11.37L7.51 1.27C6.7 0.51 5.61 0.09 4.46 0.09C4.46 0.09 4.46 0.09 4.45 0.09C3.3 0.09 2.21 0.51 1.39 1.26C0.58 2.02 0.13 3.03 0.13 4.1C0.13 5.17 0.58 6.17 1.39 6.93L12.3 17.03L10.82 18.4C7.9 17.45 4.59 18.12 2.37 20.17C-0.03 22.4 -0.69 25.81 0.75 28.66L1.42 29.98L5.38 26.32L7.22 28.02L3.25 31.68L4.69 32.3C5.78 32.77 6.94 33 8.1 33C10.22 33 12.31 32.24 13.86 30.8C16.08 28.75 16.81 25.69 15.78 22.99L19.55 19.51L24.43 24.04L25.48 28.1L31.13 33.32L36.02 28.79L30.38 23.56ZM22.21 9.81C21.16 7.74 21.64 5.26 23.39 3.64C24.73 2.39 26.63 1.85 28.46 2.1L25.35 4.97L30.31 9.56L33.42 6.69C33.7 8.37 33.11 10.12 31.76 11.37C30.01 12.99 27.32 13.43 25.07 12.46L24.37 12.16L21.83 14.51L19.99 12.81L22.53 10.46L22.21 9.81ZM2.33 4.1C2.33 3.57 2.56 3.08 2.96 2.71C3.36 2.34 3.89 2.13 4.45 2.13C5.02 2.14 5.55 2.34 5.95 2.71L20.26 15.96L17.27 18.73L2.96 5.48C2.56 5.11 2.33 4.62 2.33 4.1ZM12.3 29.35C10.96 30.6 9.06 31.14 7.24 30.89L10.34 28.02L5.38 23.43L2.27 26.3C2 24.62 2.59 22.87 3.93 21.62C5.69 20 8.37 19.56 10.62 20.53L11.32 20.83L13.87 18.47L15.7 20.18L13.16 22.53L13.48 23.18C14.53 25.25 14.05 27.73 12.3 29.35ZM27.48 27.06L26.93 24.9L29.26 25.42L32.9 28.79L31.13 30.43L27.48 27.06Z" fill="#F6A700" fill-opacity="1.000000" fill-rule="nonzero"/>
</svg>
