<?xml version="1.0" standalone="no"?>
<!DOCTYPE svg PUBLIC "-//W3C//DTD SVG 20010904//EN"
 "http://www.w3.org/TR/2001/REC-SVG-20010904/DTD/svg10.dtd">
<svg version="1.0" xmlns="http://www.w3.org/2000/svg"
 width="512.000000pt" height="512.000000pt" viewBox="0 0 512.000000 512.000000"
 preserveAspectRatio="xMidYMid meet">

<g transform="translate(0.000000,512.000000) scale(0.100000,-0.100000)"
fill="#000000" stroke="none">
<path d="M2400 5113 c-445 -43 -852 -224 -1151 -512 -78 -75 -87 -104 -44
-146 41 -41 64 -33 171 61 692 605 1676 605 2368 0 107 -94 130 -102 171 -61
42 41 34 71 -43 145 -281 275 -703 467 -1121 510 -96 9 -271 11 -351 3z"/>
<path d="M2382 4630 c-288 -37 -589 -176 -790 -367 -81 -77 -90 -106 -47 -148
39 -39 66 -32 147 38 148 128 291 212 455 268 150 51 233 63 413 63 180 0 263
-12 413 -63 163 -56 296 -133 446 -260 92 -78 117 -86 156 -46 49 48 28 90
-99 194 -190 156 -395 254 -629 302 -117 24 -350 33 -465 19z"/>
<path d="M2428 4150 c-166 -27 -336 -100 -461 -199 -113 -90 -131 -128 -82
-176 38 -39 63 -32 156 43 233 187 512 238 786 143 98 -34 168 -74 265 -153
43 -35 80 -58 95 -58 31 0 73 42 73 74 0 82 -269 257 -470 306 -97 23 -277 33
-362 20z"/>
<path d="M2475 3670 c-142 -31 -275 -121 -275 -186 0 -32 42 -74 73 -74 13 0
42 14 63 31 71 58 140 83 224 83 85 0 139 -20 216 -78 55 -42 86 -45 119 -11
47 46 27 94 -67 158 -97 67 -250 100 -353 77z"/>
<path d="M1200 3110 c-101 -18 -194 -67 -262 -137 -50 -52 -104 -144 -118
-202 l-11 -48 -69 -5 c-83 -6 -127 -29 -157 -84 -21 -37 -23 -51 -23 -234 0
-183 2 -197 23 -234 31 -56 71 -76 167 -84 l81 -7 217 -504 c188 -441 221
-510 255 -543 49 -47 115 -68 219 -68 l78 0 0 -85 0 -85 -96 0 c-112 0 -159
-19 -197 -80 -21 -33 -22 -48 -25 -280 -4 -292 -1 -319 41 -367 59 -67 -18
-63 1237 -63 1255 0 1178 -4 1237 63 42 48 45 75 41 367 -3 232 -4 247 -25
280 -38 61 -85 80 -197 80 l-96 0 0 85 0 85 78 0 c43 0 102 7 131 16 100 29
103 34 343 595 l217 504 81 7 c96 8 136 28 167 84 21 37 23 51 23 234 0 183
-2 197 -23 234 -30 55 -74 78 -157 84 l-69 5 -11 48 c-33 136 -155 264 -306
321 l-59 23 -1345 1 c-740 1 -1365 -2 -1390 -6z m2770 -171 c78 -36 124 -80
160 -152 l31 -62 -176 -5 c-171 -5 -177 -6 -196 -29 -22 -28 -25 -69 -5 -97
14 -18 32 -19 318 -24 l303 -5 0 -165 0 -165 -1845 0 -1845 0 0 165 0 165
1422 3 1422 2 20 26 c27 35 26 57 -3 91 l-24 28 -1297 5 -1296 5 31 62 c46 91
126 153 223 173 23 4 641 7 1372 7 l1330 -2 55 -26z m-2347 -881 c24 -93 207
-920 207 -933 0 -13 -26 -15 -194 -15 -188 0 -196 1 -221 23 -19 16 -83 153
-225 485 l-198 462 313 0 313 0 5 -22z m857 -463 l0 -485 -245 0 -245 0 -5 23
c-3 12 -52 230 -109 485 l-103 462 353 0 354 0 0 -485z m759 3 c-60 -266 -109
-484 -109 -485 0 -2 -110 -3 -245 -3 l-245 0 0 485 0 485 353 0 354 0 -108
-482z m691 20 c-142 -332 -206 -469 -225 -485 -25 -22 -33 -23 -221 -23 -168
0 -194 2 -194 15 0 13 183 840 207 933 l5 22 313 0 313 0 -198 -462z m-560
-743 l0 -85 -580 0 c-567 0 -580 0 -600 -20 -30 -30 -30 -73 1 -105 19 -20 36
-20 757 -25 l737 -5 0 -240 0 -240 -1125 0 -1125 0 0 240 0 240 256 5 c235 5
259 7 278 24 28 26 28 79 -1 106 -19 17 -35 20 -120 20 l-98 0 0 85 0 85 810
0 810 0 0 -85z"/>
</g>
</svg>
