<svg width="24.000000" height="24.000000" viewBox="0 0 24 24" fill="none" xmlns="http://www.w3.org/2000/svg" xmlns:xlink="http://www.w3.org/1999/xlink">
	<defs>
		<clipPath id="clip1_32">
			<rect id="tel" rx="0.000000" width="23.000000" height="23.000000" transform="translate(0.500000 0.500000)" fill="white" fill-opacity="0"/>
		</clipPath>
	</defs>
	<rect id="tel" rx="0.000000" width="23.000000" height="23.000000" transform="translate(0.500000 0.500000)" fill="#FFFFFF" fill-opacity="0"/>
	<g clip-path="url(#clip1_32)">
		<path id="Vector" d="M12 22C6.47 22 2 17.52 2 12C2 6.47 6.47 2 12 2C17.52 2 22 6.47 22 12C22 17.52 17.52 22 12 22ZM12 20C14.12 20 16.15 19.15 17.65 17.65C19.15 16.15 20 14.12 20 12C20 9.87 19.15 7.84 17.65 6.34C16.15 4.84 14.12 4 12 4C9.87 4 7.84 4.84 6.34 6.34C4.84 7.84 4 9.87 4 12C4 14.12 4.84 16.15 6.34 17.65C7.84 19.15 9.87 20 12 20Z" fill="#F6A700" fill-opacity="1.000000" fill-rule="nonzero"/>
		<path id="Vector" d="M16.99 14.45L16.99 16.41C16.99 16.56 16.94 16.69 16.85 16.79C16.75 16.9 16.62 16.96 16.48 16.97C16.24 16.99 16.04 17 15.88 17C10.97 17 7 13.02 7 8.11C7 7.95 7 7.75 7.02 7.51C7.03 7.37 7.09 7.24 7.2 7.14C7.3 7.05 7.43 7 7.57 7L9.54 7C9.61 7 9.67 7.02 9.73 7.07C9.78 7.11 9.81 7.18 9.82 7.25C9.83 7.37 9.84 7.47 9.85 7.55C9.96 8.32 10.19 9.07 10.52 9.77C10.58 9.89 10.54 10.02 10.44 10.09L9.24 10.95C9.98 12.65 11.34 14.02 13.04 14.75L13.9 13.55C13.93 13.5 13.99 13.47 14.04 13.45C14.1 13.44 14.16 13.44 14.22 13.47C14.92 13.8 15.67 14.03 16.44 14.14C16.52 14.15 16.62 14.16 16.75 14.17C16.81 14.18 16.88 14.21 16.92 14.26C16.97 14.32 17 14.38 17 14.45L16.99 14.45Z" fill="#F6A700" fill-opacity="1.000000" fill-rule="nonzero"/>
	</g>
</svg>
