<svg width="20.000000" height="20.000000" viewBox="0 0 20 20" fill="none" xmlns="http://www.w3.org/2000/svg" xmlns:xlink="http://www.w3.org/1999/xlink">

	<defs/>
	<path id="Vector" d="M10.01 0C4.5 0 0.02 4.47 0.02 9.98C0.01 11.74 0.48 13.46 1.35 14.97L0 20L5.23 18.76C6.69 19.55 8.33 19.97 10 19.98L10.01 19.98C15.51 19.98 19.99 15.5 20 9.99C20 7.32 18.96 4.81 17.07 2.92C15.19 1.03 12.68 0 10.01 0ZM10.01 2C12.14 2 14.15 2.83 15.66 4.34C17.17 5.85 18 7.85 18 9.99C17.99 14.39 14.41 17.98 10 17.98C8.67 17.97 7.35 17.64 6.19 17L5.51 16.64L4.77 16.81L2.8 17.28L3.28 15.49L3.5 14.69L3.08 13.97C2.39 12.76 2.01 11.38 2.02 9.98C2.02 5.58 5.6 2 10.01 2ZM6.47 5.37C6.3 5.37 6.03 5.43 5.81 5.68C5.58 5.93 4.93 6.53 4.93 7.76C4.93 8.99 5.83 10.18 5.95 10.34C6.07 10.51 7.68 13.11 10.21 14.11C12.32 14.94 12.75 14.78 13.21 14.74C13.67 14.69 14.69 14.13 14.89 13.55C15.1 12.97 15.1 12.46 15.04 12.36C14.98 12.26 14.81 12.2 14.56 12.07C14.31 11.95 13.08 11.34 12.86 11.26C12.63 11.18 12.46 11.14 12.3 11.39C12.13 11.64 11.65 12.2 11.51 12.36C11.36 12.53 11.21 12.55 10.96 12.43C10.71 12.3 9.91 12.04 8.96 11.19C8.21 10.53 7.71 9.71 7.57 9.46C7.42 9.21 7.55 9.07 7.68 8.95C7.79 8.84 7.93 8.66 8.05 8.51C8.17 8.37 8.22 8.26 8.3 8.1C8.39 7.93 8.34 7.78 8.28 7.66C8.22 7.53 7.73 6.3 7.51 5.81C7.32 5.39 7.13 5.38 6.95 5.38C6.8 5.37 6.64 5.37 6.47 5.37Z" fill="#2ECC71" fill-opacity="1.000000" fill-rule="nonzero"/>
</svg>
